<mxfile host="app.diagrams.net" agent="Mozilla/5.0 (Macintosh; Intel Mac OS X 10_15_7) AppleWebKit/605.1.15 (KHTML, like Gecko) Version/18.3.1 Safari/605.1.15" version="26.2.15">
  <diagram name="第 1 页" id="7QjwfGHK-FOc9aStRdH0">
    <mxGraphModel dx="3832" dy="4438" grid="1" gridSize="10" guides="1" tooltips="1" connect="1" arrows="1" fold="1" page="1" pageScale="1" pageWidth="827" pageHeight="1169" math="0" shadow="0">
      <root>
        <mxCell id="0" />
        <mxCell id="1" parent="0" />
        <mxCell id="ay0zXnUOLZ5nBZyVsYAX-1" style="edgeStyle=orthogonalEdgeStyle;rounded=0;orthogonalLoop=1;jettySize=auto;html=1;exitX=0.5;exitY=0;exitDx=0;exitDy=0;entryX=0.5;entryY=1;entryDx=0;entryDy=0;strokeColor=default;strokeWidth=3;align=center;verticalAlign=middle;fontFamily=Helvetica;fontSize=11;fontColor=default;labelBackgroundColor=default;endArrow=classic;" edge="1" parent="1" source="ay0zXnUOLZ5nBZyVsYAX-2" target="ay0zXnUOLZ5nBZyVsYAX-10">
          <mxGeometry relative="1" as="geometry" />
        </mxCell>
        <mxCell id="ay0zXnUOLZ5nBZyVsYAX-2" value="dec_out_list(List)" style="swimlane;fontStyle=0;childLayout=stackLayout;horizontal=1;startSize=20;fillColor=#fff2cc;horizontalStack=0;resizeParent=1;resizeParentMax=0;resizeLast=0;collapsible=1;marginBottom=0;fontFamily=Times New Roman, SimSun;swimlaneLine=1;strokeWidth=2;strokeColor=#d6b656;shadow=1;" vertex="1" parent="1">
          <mxGeometry x="-1260.0700000000002" y="-2590" width="121.75" height="124" as="geometry">
            <mxRectangle x="-701.38" y="-2644" width="120" height="40" as="alternateBounds" />
          </mxGeometry>
        </mxCell>
        <mxCell id="ay0zXnUOLZ5nBZyVsYAX-3" value="&lt;div style=&quot;&quot;&gt;[0]:Tensor(32&lt;span style=&quot;background-color: transparent; color: light-dark(rgb(0, 0, 0), rgb(255, 255, 255));&quot;&gt;,720&lt;/span&gt;&lt;span style=&quot;background-color: transparent; color: light-dark(rgb(0, 0, 0), rgb(255, 255, 255));&quot;&gt;,7&lt;/span&gt;&lt;span style=&quot;background-color: transparent; color: light-dark(rgb(0, 0, 0), rgb(255, 255, 255));&quot;&gt;)&lt;/span&gt;&lt;/div&gt;" style="text;strokeColor=#d6b656;fillColor=#fff2cc;align=center;verticalAlign=top;spacingLeft=4;spacingRight=4;overflow=hidden;rotatable=0;points=[[0,0.5],[1,0.5]];portConstraint=eastwest;whiteSpace=wrap;html=1;fontFamily=Times New Roman, SimSun;" vertex="1" parent="ay0zXnUOLZ5nBZyVsYAX-2">
          <mxGeometry y="20" width="121.75" height="26" as="geometry" />
        </mxCell>
        <mxCell id="ay0zXnUOLZ5nBZyVsYAX-4" value="&lt;span style=&quot;&quot;&gt;[1]:Tensor&lt;/span&gt;(32&lt;span style=&quot;color: light-dark(rgb(0, 0, 0), rgb(255, 255, 255)); background-color: transparent;&quot;&gt;,720&lt;/span&gt;&lt;span style=&quot;color: light-dark(rgb(0, 0, 0), rgb(255, 255, 255)); background-color: transparent;&quot;&gt;,7&lt;/span&gt;&lt;span style=&quot;color: light-dark(rgb(0, 0, 0), rgb(255, 255, 255)); background-color: transparent;&quot;&gt;)&lt;/span&gt;" style="text;strokeColor=#d6b656;fillColor=#fff2cc;align=center;verticalAlign=top;spacingLeft=4;spacingRight=4;overflow=hidden;rotatable=0;points=[[0,0.5],[1,0.5]];portConstraint=eastwest;whiteSpace=wrap;html=1;fontFamily=Times New Roman, SimSun;fontSize=12;fontColor=default;" vertex="1" parent="ay0zXnUOLZ5nBZyVsYAX-2">
          <mxGeometry y="46" width="121.75" height="26" as="geometry" />
        </mxCell>
        <mxCell id="ay0zXnUOLZ5nBZyVsYAX-5" value="&lt;span style=&quot;&quot;&gt;[2]:Tensor&lt;/span&gt;(32&lt;span style=&quot;color: light-dark(rgb(0, 0, 0), rgb(255, 255, 255)); background-color: transparent;&quot;&gt;,720&lt;/span&gt;&lt;span style=&quot;color: light-dark(rgb(0, 0, 0), rgb(255, 255, 255)); background-color: transparent;&quot;&gt;,7&lt;/span&gt;&lt;span style=&quot;color: light-dark(rgb(0, 0, 0), rgb(255, 255, 255)); background-color: transparent;&quot;&gt;)&lt;/span&gt;" style="text;strokeColor=#d6b656;fillColor=#fff2cc;align=center;verticalAlign=top;spacingLeft=5;spacingRight=5;overflow=hidden;rotatable=0;points=[[0,0.5],[1,0.5]];portConstraint=eastwest;whiteSpace=wrap;html=1;fontFamily=Times New Roman, SimSun;" vertex="1" parent="ay0zXnUOLZ5nBZyVsYAX-2">
          <mxGeometry y="72" width="121.75" height="26" as="geometry" />
        </mxCell>
        <mxCell id="ay0zXnUOLZ5nBZyVsYAX-6" value="&lt;span style=&quot;&quot;&gt;[3]:Tensor&lt;/span&gt;(32&lt;span style=&quot;color: light-dark(rgb(0, 0, 0), rgb(255, 255, 255)); background-color: transparent;&quot;&gt;,720&lt;/span&gt;&lt;span style=&quot;color: light-dark(rgb(0, 0, 0), rgb(255, 255, 255)); background-color: transparent;&quot;&gt;,7&lt;/span&gt;&lt;span style=&quot;color: light-dark(rgb(0, 0, 0), rgb(255, 255, 255)); background-color: transparent;&quot;&gt;)&lt;/span&gt;" style="text;strokeColor=#d6b656;fillColor=#fff2cc;align=center;verticalAlign=top;spacingLeft=4;spacingRight=4;overflow=hidden;rotatable=0;points=[[0,0.5],[1,0.5]];portConstraint=eastwest;whiteSpace=wrap;html=1;fontFamily=Times New Roman, SimSun;" vertex="1" parent="ay0zXnUOLZ5nBZyVsYAX-2">
          <mxGeometry y="98" width="121.75" height="26" as="geometry" />
        </mxCell>
        <mxCell id="ay0zXnUOLZ5nBZyVsYAX-7" value="&lt;span style=&quot;text-wrap-mode: nowrap;&quot;&gt;dec_out(Tensor)&lt;/span&gt;&lt;div&gt;(32&lt;span style=&quot;color: light-dark(rgb(0, 0, 0), rgb(255, 255, 255)); background-color: transparent;&quot;&gt;,720&lt;/span&gt;&lt;span style=&quot;color: light-dark(rgb(0, 0, 0), rgb(255, 255, 255)); background-color: transparent;&quot;&gt;,7&lt;/span&gt;&lt;span style=&quot;color: light-dark(rgb(0, 0, 0), rgb(255, 255, 255)); background-color: transparent;&quot;&gt;)&lt;/span&gt;&lt;span style=&quot;text-wrap-mode: nowrap;&quot;&gt;&lt;/span&gt;&lt;/div&gt;" style="rounded=0;whiteSpace=wrap;html=1;fontFamily=Times New Roman, SimSun;strokeWidth=2;fillColor=#fff2cc;strokeColor=#d6b656;shadow=1;" vertex="1" parent="1">
          <mxGeometry x="-1263.44" y="-2721" width="119.5" height="41" as="geometry" />
        </mxCell>
        <mxCell id="ay0zXnUOLZ5nBZyVsYAX-8" value="&lt;span style=&quot;text-wrap-mode: nowrap;&quot;&gt;dec_out(Tensor)&lt;/span&gt;&lt;div&gt;(32&lt;span style=&quot;color: light-dark(rgb(0, 0, 0), rgb(255, 255, 255)); background-color: transparent;&quot;&gt;,720&lt;/span&gt;&lt;span style=&quot;color: light-dark(rgb(0, 0, 0), rgb(255, 255, 255)); background-color: transparent;&quot;&gt;,7&lt;/span&gt;&lt;span style=&quot;color: light-dark(rgb(0, 0, 0), rgb(255, 255, 255)); background-color: transparent;&quot;&gt;)&lt;/span&gt;&lt;span style=&quot;text-wrap-mode: nowrap;&quot;&gt;&lt;/span&gt;&lt;/div&gt;" style="rounded=0;whiteSpace=wrap;html=1;fontFamily=Times New Roman, SimSun;strokeWidth=2;fillColor=#fff2cc;strokeColor=#d6b656;shadow=1;" vertex="1" parent="1">
          <mxGeometry x="-1263.94" y="-2877" width="119.5" height="40" as="geometry" />
        </mxCell>
        <mxCell id="ay0zXnUOLZ5nBZyVsYAX-9" style="edgeStyle=orthogonalEdgeStyle;rounded=0;orthogonalLoop=1;jettySize=auto;html=1;exitX=0.5;exitY=0;exitDx=0;exitDy=0;strokeColor=default;strokeWidth=3;align=center;verticalAlign=middle;fontFamily=Helvetica;fontSize=11;fontColor=default;labelBackgroundColor=default;endArrow=classic;" edge="1" parent="1" source="ay0zXnUOLZ5nBZyVsYAX-10">
          <mxGeometry relative="1" as="geometry">
            <mxPoint x="-1204.3200000000002" y="-2680" as="targetPoint" />
          </mxGeometry>
        </mxCell>
        <mxCell id="ay0zXnUOLZ5nBZyVsYAX-10" value="&lt;span style=&quot;text-wrap-mode: nowrap;&quot;&gt;stack(dim=-1),&amp;nbsp;.sum(-1)&lt;/span&gt;" style="rounded=0;whiteSpace=wrap;html=1;fontFamily=Times New Roman, SimSun;strokeWidth=1;dashed=1;fillColor=#dae8fc;strokeColor=#6c8ebf;fontStyle=1" vertex="1" parent="1">
          <mxGeometry x="-1265.69" y="-2658" width="122.5" height="40" as="geometry" />
        </mxCell>
        <mxCell id="ay0zXnUOLZ5nBZyVsYAX-11" style="edgeStyle=orthogonalEdgeStyle;rounded=0;orthogonalLoop=1;jettySize=auto;html=1;exitX=0.5;exitY=0;exitDx=0;exitDy=0;entryX=0.5;entryY=1;entryDx=0;entryDy=0;strokeColor=default;strokeWidth=3;align=center;verticalAlign=middle;fontFamily=Helvetica;fontSize=11;fontColor=default;labelBackgroundColor=default;endArrow=classic;" edge="1" parent="1" source="ay0zXnUOLZ5nBZyVsYAX-12" target="ay0zXnUOLZ5nBZyVsYAX-8">
          <mxGeometry relative="1" as="geometry" />
        </mxCell>
        <mxCell id="ay0zXnUOLZ5nBZyVsYAX-12" value="&lt;span style=&quot;text-wrap-mode: nowrap;&quot;&gt;normalize_layers&lt;/span&gt;" style="rounded=0;whiteSpace=wrap;html=1;fontFamily=Times New Roman, SimSun;strokeWidth=1;dashed=1;fillColor=#dae8fc;strokeColor=#6c8ebf;fontStyle=1" vertex="1" parent="1">
          <mxGeometry x="-1264.94" y="-2817" width="122.5" height="40" as="geometry" />
        </mxCell>
        <mxCell id="ay0zXnUOLZ5nBZyVsYAX-13" style="edgeStyle=orthogonalEdgeStyle;rounded=0;orthogonalLoop=1;jettySize=auto;html=1;exitX=0.5;exitY=0;exitDx=0;exitDy=0;strokeWidth=3;strokeColor=default;align=center;verticalAlign=middle;fontFamily=Helvetica;fontSize=11;fontColor=default;labelBackgroundColor=default;endArrow=classic;" edge="1" parent="1" source="ay0zXnUOLZ5nBZyVsYAX-14" target="ay0zXnUOLZ5nBZyVsYAX-2">
          <mxGeometry relative="1" as="geometry" />
        </mxCell>
        <mxCell id="ay0zXnUOLZ5nBZyVsYAX-14" value="&lt;span style=&quot;text-wrap-mode: nowrap;&quot;&gt;reshape(B, c_out, pred_len)&lt;/span&gt;&lt;div style=&quot;text-wrap-mode: nowrap;&quot;&gt;.permute(0, 2, 1)&lt;/div&gt;" style="rounded=0;whiteSpace=wrap;html=1;fontFamily=Times New Roman, SimSun;dashed=1;strokeColor=#6c8ebf;strokeWidth=1;align=center;verticalAlign=middle;fontSize=12;fontColor=default;fillColor=#dae8fc;fontStyle=1" vertex="1" parent="1">
          <mxGeometry x="-1271.69" y="-2426" width="145" height="50" as="geometry" />
        </mxCell>
        <mxCell id="ay0zXnUOLZ5nBZyVsYAX-15" style="edgeStyle=orthogonalEdgeStyle;rounded=0;orthogonalLoop=1;jettySize=auto;html=1;exitX=0.5;exitY=0;exitDx=0;exitDy=0;entryX=0.494;entryY=1.048;entryDx=0;entryDy=0;entryPerimeter=0;strokeColor=default;strokeWidth=3;align=center;verticalAlign=middle;fontFamily=Helvetica;fontSize=11;fontColor=default;labelBackgroundColor=default;endArrow=classic;" edge="1" parent="1" source="ay0zXnUOLZ5nBZyVsYAX-7" target="ay0zXnUOLZ5nBZyVsYAX-12">
          <mxGeometry relative="1" as="geometry" />
        </mxCell>
        <mxCell id="ay0zXnUOLZ5nBZyVsYAX-16" style="edgeStyle=orthogonalEdgeStyle;rounded=0;orthogonalLoop=1;jettySize=auto;html=1;exitX=0.5;exitY=0;exitDx=0;exitDy=0;dashed=1;strokeWidth=3;strokeColor=default;align=center;verticalAlign=middle;fontFamily=Helvetica;fontSize=11;fontColor=default;labelBackgroundColor=default;endArrow=classic;" edge="1" parent="1" source="ay0zXnUOLZ5nBZyVsYAX-17" target="ay0zXnUOLZ5nBZyVsYAX-14">
          <mxGeometry relative="1" as="geometry" />
        </mxCell>
        <mxCell id="ay0zXnUOLZ5nBZyVsYAX-17" value=" def  future_multi_mixing" style="swimlane;fontStyle=3;childLayout=stackLayout;horizontal=1;startSize=26;horizontalStack=0;resizeParent=1;resizeParentMax=0;resizeLast=0;collapsible=1;marginBottom=0;align=center;fontSize=14;fontFamily=Times New Roman, SimSun;fillColor=#dae8fc;strokeColor=#6c8ebf;dashed=1;strokeWidth=2;" vertex="1" parent="1">
          <mxGeometry x="-1307.69" y="-2243" width="220" height="86" as="geometry">
            <mxRectangle x="310" y="-310" width="110" height="30" as="alternateBounds" />
          </mxGeometry>
        </mxCell>
        <mxCell id="ay0zXnUOLZ5nBZyVsYAX-18" value="predict_layers" style="text;strokeColor=none;fillColor=none;spacingLeft=4;spacingRight=4;overflow=hidden;rotatable=0;points=[[0,0.5],[1,0.5]];portConstraint=eastwest;fontSize=12;whiteSpace=wrap;html=1;fontFamily=Verdana;fontStyle=2;fontColor=default;" vertex="1" parent="ay0zXnUOLZ5nBZyVsYAX-17">
          <mxGeometry y="26" width="220" height="30" as="geometry" />
        </mxCell>
        <mxCell id="ay0zXnUOLZ5nBZyVsYAX-19" value="projection_layer" style="text;strokeColor=none;fillColor=none;spacingLeft=4;spacingRight=4;overflow=hidden;rotatable=0;points=[[0,0.5],[1,0.5]];portConstraint=eastwest;fontSize=12;whiteSpace=wrap;html=1;fontFamily=Verdana;fontStyle=2" vertex="1" parent="ay0zXnUOLZ5nBZyVsYAX-17">
          <mxGeometry y="56" width="220" height="30" as="geometry" />
        </mxCell>
        <mxCell id="ay0zXnUOLZ5nBZyVsYAX-20" value="&lt;font style=&quot;font-size: 13px;&quot;&gt;&lt;i&gt;self.predict_layers (ModuleList)&lt;/i&gt;&lt;/font&gt;" style="swimlane;fontStyle=1;childLayout=stackLayout;horizontal=1;startSize=26;fillColor=#dae8fc;horizontalStack=0;resizeParent=1;resizeParentMax=0;resizeLast=0;collapsible=1;marginBottom=0;html=1;fontFamily=Times New Roman, SimSun;strokeColor=#6c8ebf;dashed=1;strokeWidth=2;" vertex="1" parent="1">
          <mxGeometry x="-1004.8099999999998" y="-2250" width="380" height="130" as="geometry">
            <mxRectangle x="615" y="-2060" width="210" height="30" as="alternateBounds" />
          </mxGeometry>
        </mxCell>
        <mxCell id="ay0zXnUOLZ5nBZyVsYAX-21" value="&lt;div&gt;&lt;span style=&quot;background-color: transparent; color: light-dark(rgb(0, 0, 0), rgb(255, 255, 255));&quot;&gt;&lt;font face=&quot;Verdana&quot;&gt;处理时间步&amp;nbsp;&lt;/font&gt;&lt;/span&gt;&lt;/div&gt;&lt;div&gt;&lt;span style=&quot;background-color: transparent;&quot;&gt;&lt;font face=&quot;Verdana&quot;&gt;Linear(&lt;/font&gt;&lt;/span&gt;&lt;span style=&quot;font-family: Verdana; background-color: transparent; color: light-dark(rgb(0, 0, 0), rgb(255, 255, 255));&quot;&gt;seq_len // (down_sampling_window ** i),&lt;/span&gt;&lt;font face=&quot;Verdana&quot; style=&quot;background-color: transparent; color: light-dark(rgb(0, 0, 0), rgb(255, 255, 255));&quot;&gt;pred_len&lt;/font&gt;&lt;span style=&quot;background-color: transparent; color: light-dark(rgb(0, 0, 0), rgb(255, 255, 255)); font-family: Verdana;&quot;&gt;&amp;nbsp;)&lt;/span&gt;&lt;/div&gt;&lt;div&gt;&lt;span style=&quot;background-color: transparent; color: light-dark(rgb(0, 0, 0), rgb(255, 255, 255));&quot;&gt;&lt;font face=&quot;Verdana&quot;&gt;&amp;nbsp;(0): Linear(in_features=96, out_features=720, bias=True)&lt;/font&gt;&lt;/span&gt;&lt;/div&gt;&lt;div&gt;&lt;font face=&quot;Verdana&quot;&gt;&amp;nbsp; (1): Linear(in_features=48, out_features=720, bias=True)&lt;/font&gt;&lt;/div&gt;&lt;div&gt;&lt;font face=&quot;Verdana&quot;&gt;&amp;nbsp; (2): Linear(in_features=24, out_features=720, bias=True)&lt;/font&gt;&lt;/div&gt;&lt;div&gt;&lt;font face=&quot;Verdana&quot;&gt;&amp;nbsp; (3): Linear(in_features=12, out_features=720, bias=True)&lt;/font&gt;&lt;/div&gt;" style="text;strokeColor=none;fillColor=none;align=left;verticalAlign=top;spacingLeft=4;spacingRight=4;overflow=hidden;rotatable=0;points=[[0,0.5],[1,0.5]];portConstraint=eastwest;whiteSpace=wrap;html=1;fontFamily=Times New Roman, SimSun;fontStyle=2" vertex="1" parent="ay0zXnUOLZ5nBZyVsYAX-20">
          <mxGeometry y="26" width="380" height="104" as="geometry" />
        </mxCell>
        <mxCell id="ay0zXnUOLZ5nBZyVsYAX-22" style="edgeStyle=orthogonalEdgeStyle;rounded=0;orthogonalLoop=1;jettySize=auto;html=1;exitX=0.5;exitY=0;exitDx=0;exitDy=0;entryX=1;entryY=0.5;entryDx=0;entryDy=0;strokeColor=default;strokeWidth=3;align=center;verticalAlign=middle;fontFamily=Helvetica;fontSize=11;fontColor=default;labelBackgroundColor=default;endArrow=classic;" edge="1" parent="1" source="ay0zXnUOLZ5nBZyVsYAX-23" target="ay0zXnUOLZ5nBZyVsYAX-14">
          <mxGeometry relative="1" as="geometry" />
        </mxCell>
        <mxCell id="ay0zXnUOLZ5nBZyVsYAX-23" value="&lt;span style=&quot;font-size: 13px;&quot;&gt;&lt;i&gt;self.projection_layer&lt;/i&gt;&lt;/span&gt;" style="swimlane;fontStyle=1;childLayout=stackLayout;horizontal=1;startSize=26;fillColor=#dae8fc;horizontalStack=0;resizeParent=1;resizeParentMax=0;resizeLast=0;collapsible=1;marginBottom=0;html=1;fontFamily=Times New Roman, SimSun;strokeColor=#6c8ebf;dashed=1;strokeWidth=2;" vertex="1" parent="1">
          <mxGeometry x="-1000.81" y="-2376" width="379.5" height="70" as="geometry" />
        </mxCell>
        <mxCell id="ay0zXnUOLZ5nBZyVsYAX-24" value="&lt;div&gt;&lt;font face=&quot;Verdana&quot;&gt;&lt;div&gt;nn.Linear(&lt;span style=&quot;background-color: transparent; color: light-dark(rgb(0, 0, 0), rgb(255, 255, 255));&quot;&gt;d_model, 1, bias=True)&lt;/span&gt;&lt;/div&gt;&lt;/font&gt;&lt;/div&gt;&lt;font face=&quot;Verdana&quot;&gt;Linear(in_features=16, out_features=1, bias=True)&lt;/font&gt;" style="text;strokeColor=none;fillColor=none;align=left;verticalAlign=top;spacingLeft=4;spacingRight=4;overflow=hidden;rotatable=0;points=[[0,0.5],[1,0.5]];portConstraint=eastwest;whiteSpace=wrap;html=1;fontFamily=Times New Roman, SimSun;fontStyle=2" vertex="1" parent="ay0zXnUOLZ5nBZyVsYAX-23">
          <mxGeometry y="26" width="379.5" height="44" as="geometry" />
        </mxCell>
        <mxCell id="ay0zXnUOLZ5nBZyVsYAX-25" style="edgeStyle=orthogonalEdgeStyle;rounded=0;orthogonalLoop=1;jettySize=auto;html=1;exitX=1;exitY=0.5;exitDx=0;exitDy=0;entryX=0;entryY=0.5;entryDx=0;entryDy=0;strokeColor=default;strokeWidth=3;align=center;verticalAlign=middle;fontFamily=Helvetica;fontSize=11;fontColor=default;labelBackgroundColor=default;endArrow=classic;" edge="1" parent="1" source="ay0zXnUOLZ5nBZyVsYAX-19" target="ay0zXnUOLZ5nBZyVsYAX-21">
          <mxGeometry relative="1" as="geometry" />
        </mxCell>
        <mxCell id="ay0zXnUOLZ5nBZyVsYAX-26" style="edgeStyle=orthogonalEdgeStyle;rounded=0;orthogonalLoop=1;jettySize=auto;html=1;exitX=0.5;exitY=0;exitDx=0;exitDy=0;entryX=0.49;entryY=1.008;entryDx=0;entryDy=0;entryPerimeter=0;strokeColor=default;strokeWidth=3;align=center;verticalAlign=middle;fontFamily=Helvetica;fontSize=11;fontColor=default;labelBackgroundColor=default;endArrow=classic;" edge="1" parent="1" source="ay0zXnUOLZ5nBZyVsYAX-20" target="ay0zXnUOLZ5nBZyVsYAX-24">
          <mxGeometry relative="1" as="geometry" />
        </mxCell>
        <mxCell id="ay0zXnUOLZ5nBZyVsYAX-27" value="enc_out_list(List)" style="swimlane;fontStyle=0;childLayout=stackLayout;horizontal=1;startSize=20;fillColor=#fff2cc;horizontalStack=0;resizeParent=1;resizeParentMax=0;resizeLast=0;collapsible=1;marginBottom=0;fontFamily=Times New Roman, SimSun;swimlaneLine=1;strokeWidth=2;strokeColor=#d6b656;shadow=1;" vertex="1" parent="1">
          <mxGeometry x="-1255.69" y="-2106" width="120" height="124" as="geometry">
            <mxRectangle x="-700" y="-2160" width="120" height="40" as="alternateBounds" />
          </mxGeometry>
        </mxCell>
        <mxCell id="ay0zXnUOLZ5nBZyVsYAX-28" value="&lt;div style=&quot;&quot;&gt;[0]:Tensor(224&lt;span style=&quot;background-color: transparent; color: light-dark(rgb(0, 0, 0), rgb(255, 255, 255));&quot;&gt;,96&lt;/span&gt;&lt;span style=&quot;background-color: transparent; color: light-dark(rgb(0, 0, 0), rgb(255, 255, 255));&quot;&gt;,16&lt;/span&gt;&lt;span style=&quot;background-color: transparent; color: light-dark(rgb(0, 0, 0), rgb(255, 255, 255));&quot;&gt;)&lt;/span&gt;&lt;/div&gt;" style="text;strokeColor=#d6b656;fillColor=#fff2cc;align=center;verticalAlign=top;spacingLeft=4;spacingRight=4;overflow=hidden;rotatable=0;points=[[0,0.5],[1,0.5]];portConstraint=eastwest;whiteSpace=wrap;html=1;fontFamily=Times New Roman, SimSun;" vertex="1" parent="ay0zXnUOLZ5nBZyVsYAX-27">
          <mxGeometry y="20" width="120" height="26" as="geometry" />
        </mxCell>
        <mxCell id="ay0zXnUOLZ5nBZyVsYAX-29" value="&lt;span style=&quot;&quot;&gt;[1]:Tensor(&lt;/span&gt;&lt;span style=&quot;&quot;&gt;224&lt;/span&gt;,48,16&lt;span style=&quot;&quot;&gt;)&lt;/span&gt;" style="text;strokeColor=#d6b656;fillColor=#fff2cc;align=center;verticalAlign=top;spacingLeft=4;spacingRight=4;overflow=hidden;rotatable=0;points=[[0,0.5],[1,0.5]];portConstraint=eastwest;whiteSpace=wrap;html=1;fontFamily=Times New Roman, SimSun;fontSize=12;fontColor=default;" vertex="1" parent="ay0zXnUOLZ5nBZyVsYAX-27">
          <mxGeometry y="46" width="120" height="26" as="geometry" />
        </mxCell>
        <mxCell id="ay0zXnUOLZ5nBZyVsYAX-30" value="&lt;span style=&quot;&quot;&gt;[3]:Tensor(&lt;/span&gt;&lt;span style=&quot;&quot;&gt;224&lt;/span&gt;,12,16&lt;span style=&quot;&quot;&gt;)&lt;/span&gt;" style="text;strokeColor=#d6b656;fillColor=#fff2cc;align=center;verticalAlign=top;spacingLeft=4;spacingRight=4;overflow=hidden;rotatable=0;points=[[0,0.5],[1,0.5]];portConstraint=eastwest;whiteSpace=wrap;html=1;fontFamily=Times New Roman, SimSun;" vertex="1" parent="ay0zXnUOLZ5nBZyVsYAX-27">
          <mxGeometry y="72" width="120" height="26" as="geometry" />
        </mxCell>
        <mxCell id="ay0zXnUOLZ5nBZyVsYAX-31" value="&lt;span style=&quot;&quot;&gt;[2]:Tensor(&lt;/span&gt;&lt;span style=&quot;&quot;&gt;224&lt;/span&gt;,24,16&lt;span style=&quot;&quot;&gt;)&lt;/span&gt;" style="text;strokeColor=#d6b656;fillColor=#fff2cc;align=center;verticalAlign=top;spacingLeft=5;spacingRight=5;overflow=hidden;rotatable=0;points=[[0,0.5],[1,0.5]];portConstraint=eastwest;whiteSpace=wrap;html=1;fontFamily=Times New Roman, SimSun;" vertex="1" parent="ay0zXnUOLZ5nBZyVsYAX-27">
          <mxGeometry y="98" width="120" height="26" as="geometry" />
        </mxCell>
        <mxCell id="ay0zXnUOLZ5nBZyVsYAX-32" style="edgeStyle=orthogonalEdgeStyle;rounded=0;orthogonalLoop=1;jettySize=auto;html=1;exitX=0.5;exitY=0;exitDx=0;exitDy=0;entryX=0.502;entryY=1.021;entryDx=0;entryDy=0;entryPerimeter=0;strokeColor=default;strokeWidth=3;align=center;verticalAlign=middle;fontFamily=Helvetica;fontSize=11;fontColor=default;labelBackgroundColor=default;endArrow=classic;" edge="1" parent="1" source="ay0zXnUOLZ5nBZyVsYAX-27" target="ay0zXnUOLZ5nBZyVsYAX-19">
          <mxGeometry relative="1" as="geometry" />
        </mxCell>
        <mxCell id="ay0zXnUOLZ5nBZyVsYAX-33" style="edgeStyle=orthogonalEdgeStyle;rounded=0;orthogonalLoop=1;jettySize=auto;html=1;exitX=0.5;exitY=0;exitDx=0;exitDy=0;entryX=0.5;entryY=1;entryDx=0;entryDy=0;strokeColor=default;strokeWidth=3;align=center;verticalAlign=middle;fontFamily=Helvetica;fontSize=11;fontColor=default;labelBackgroundColor=default;endArrow=classic;" edge="1" parent="1" source="ay0zXnUOLZ5nBZyVsYAX-34" target="ay0zXnUOLZ5nBZyVsYAX-27">
          <mxGeometry relative="1" as="geometry" />
        </mxCell>
        <mxCell id="ay0zXnUOLZ5nBZyVsYAX-34" value="pdm_blocks (PastDecomposableMixing) 2-nd" style="swimlane;fontStyle=3;childLayout=stackLayout;horizontal=1;startSize=26;horizontalStack=0;resizeParent=1;resizeParentMax=0;resizeLast=0;collapsible=1;marginBottom=0;align=center;fontSize=14;fontFamily=Times New Roman, SimSun;strokeWidth=2;dashed=1;fillColor=#dae8fc;strokeColor=#6c8ebf;" vertex="1" parent="1">
          <mxGeometry x="-1408" y="-1932" width="427.12" height="116" as="geometry">
            <mxRectangle x="310" y="-310" width="110" height="30" as="alternateBounds" />
          </mxGeometry>
        </mxCell>
        <mxCell id="ay0zXnUOLZ5nBZyVsYAX-35" value="season, trend = decompsition=&amp;nbsp;(avg): AvgPool1d(kernrl=25)" style="text;strokeColor=none;fillColor=none;spacingLeft=4;spacingRight=4;overflow=hidden;rotatable=0;points=[[0,0.5],[1,0.5]];portConstraint=eastwest;fontSize=12;whiteSpace=wrap;html=1;fontFamily=Verdana;fontStyle=2" vertex="1" parent="ay0zXnUOLZ5nBZyVsYAX-34">
          <mxGeometry y="26" width="427.12" height="30" as="geometry" />
        </mxCell>
        <mxCell id="ay0zXnUOLZ5nBZyVsYAX-36" value="mixing_multi_scale_season" style="text;strokeColor=none;fillColor=none;spacingLeft=4;spacingRight=4;overflow=hidden;rotatable=0;points=[[0,0.5],[1,0.5]];portConstraint=eastwest;fontSize=12;whiteSpace=wrap;html=1;fontFamily=Times New Roman, SimSun;" vertex="1" parent="ay0zXnUOLZ5nBZyVsYAX-34">
          <mxGeometry y="56" width="427.12" height="30" as="geometry" />
        </mxCell>
        <mxCell id="ay0zXnUOLZ5nBZyVsYAX-37" value="mixing_multi_scale_trend" style="text;strokeColor=none;fillColor=none;spacingLeft=4;spacingRight=4;overflow=hidden;rotatable=0;points=[[0,0.5],[1,0.5]];portConstraint=eastwest;fontSize=12;whiteSpace=wrap;html=1;fontFamily=Times New Roman, SimSun;" vertex="1" parent="ay0zXnUOLZ5nBZyVsYAX-34">
          <mxGeometry y="86" width="427.12" height="30" as="geometry" />
        </mxCell>
        <mxCell id="ay0zXnUOLZ5nBZyVsYAX-38" value="enc_out_list (List)" style="swimlane;fontStyle=0;childLayout=stackLayout;horizontal=1;startSize=20;fillColor=#fff2cc;horizontalStack=0;resizeParent=1;resizeParentMax=0;resizeLast=0;collapsible=1;marginBottom=0;fontFamily=Times New Roman, SimSun;swimlaneLine=1;strokeWidth=2;strokeColor=#d6b656;" vertex="1" parent="1">
          <mxGeometry x="-1283.75" y="-1772" width="144" height="124" as="geometry">
            <mxRectangle x="358.25" y="-124" width="120" height="40" as="alternateBounds" />
          </mxGeometry>
        </mxCell>
        <mxCell id="ay0zXnUOLZ5nBZyVsYAX-39" value="&lt;div style=&quot;&quot;&gt;[0]:Tensor(224&lt;span style=&quot;background-color: transparent; color: light-dark(rgb(0, 0, 0), rgb(255, 255, 255));&quot;&gt;,96&lt;/span&gt;&lt;span style=&quot;background-color: transparent; color: light-dark(rgb(0, 0, 0), rgb(255, 255, 255));&quot;&gt;,16&lt;/span&gt;&lt;span style=&quot;background-color: transparent; color: light-dark(rgb(0, 0, 0), rgb(255, 255, 255));&quot;&gt;)&lt;/span&gt;&lt;/div&gt;" style="text;strokeColor=#d6b656;fillColor=#fff2cc;align=center;verticalAlign=top;spacingLeft=4;spacingRight=4;overflow=hidden;rotatable=0;points=[[0,0.5],[1,0.5]];portConstraint=eastwest;whiteSpace=wrap;html=1;fontFamily=Times New Roman, SimSun;" vertex="1" parent="ay0zXnUOLZ5nBZyVsYAX-38">
          <mxGeometry y="20" width="144" height="26" as="geometry" />
        </mxCell>
        <mxCell id="ay0zXnUOLZ5nBZyVsYAX-40" value="&lt;span style=&quot;&quot;&gt;[1]:Tensor(&lt;/span&gt;&lt;span style=&quot;&quot;&gt;224&lt;/span&gt;,48,16&lt;span style=&quot;&quot;&gt;)&lt;/span&gt;" style="text;strokeColor=#d6b656;fillColor=#fff2cc;align=center;verticalAlign=top;spacingLeft=4;spacingRight=4;overflow=hidden;rotatable=0;points=[[0,0.5],[1,0.5]];portConstraint=eastwest;whiteSpace=wrap;html=1;fontFamily=Times New Roman, SimSun;fontSize=12;fontColor=default;" vertex="1" parent="ay0zXnUOLZ5nBZyVsYAX-38">
          <mxGeometry y="46" width="144" height="26" as="geometry" />
        </mxCell>
        <mxCell id="ay0zXnUOLZ5nBZyVsYAX-41" value="&lt;span style=&quot;&quot;&gt;[2]:Tensor(&lt;/span&gt;&lt;span style=&quot;&quot;&gt;224&lt;/span&gt;,24,16&lt;span style=&quot;&quot;&gt;)&lt;/span&gt;" style="text;strokeColor=#d6b656;fillColor=#fff2cc;align=center;verticalAlign=top;spacingLeft=5;spacingRight=5;overflow=hidden;rotatable=0;points=[[0,0.5],[1,0.5]];portConstraint=eastwest;whiteSpace=wrap;html=1;fontFamily=Times New Roman, SimSun;" vertex="1" parent="ay0zXnUOLZ5nBZyVsYAX-38">
          <mxGeometry y="72" width="144" height="26" as="geometry" />
        </mxCell>
        <mxCell id="ay0zXnUOLZ5nBZyVsYAX-42" value="&lt;span style=&quot;&quot;&gt;[3]:Tensor(&lt;/span&gt;&lt;span style=&quot;&quot;&gt;224&lt;/span&gt;,12,16&lt;span style=&quot;&quot;&gt;)&lt;/span&gt;" style="text;strokeColor=#d6b656;fillColor=#fff2cc;align=center;verticalAlign=top;spacingLeft=4;spacingRight=4;overflow=hidden;rotatable=0;points=[[0,0.5],[1,0.5]];portConstraint=eastwest;whiteSpace=wrap;html=1;fontFamily=Times New Roman, SimSun;" vertex="1" parent="ay0zXnUOLZ5nBZyVsYAX-38">
          <mxGeometry y="98" width="144" height="26" as="geometry" />
        </mxCell>
        <mxCell id="ay0zXnUOLZ5nBZyVsYAX-43" value="&lt;b&gt;out_cross_layer (nn.Sequential)&lt;/b&gt;" style="swimlane;fontStyle=2;childLayout=stackLayout;horizontal=1;startSize=26;fillColor=#dae8fc;horizontalStack=0;resizeParent=1;resizeParentMax=0;resizeLast=0;collapsible=1;marginBottom=0;html=1;fontFamily=Times New Roman, SimSun;dashed=1;strokeColor=#6c8ebf;" vertex="1" parent="1">
          <mxGeometry x="-1403.25" y="-1528" width="381" height="106" as="geometry" />
        </mxCell>
        <mxCell id="ay0zXnUOLZ5nBZyVsYAX-44" value="&lt;div&gt;Sequential(&lt;/div&gt;&lt;div&gt;&amp;nbsp; (0): Linear(in_features=16, out_features=32, bias=True)&lt;/div&gt;&lt;div&gt;&amp;nbsp; (1): GELU(approximate=&#39;none&#39;)&lt;/div&gt;&lt;div&gt;&amp;nbsp; (2): Linear(in_features=32, out_features=16, bias=True)&lt;span style=&quot;background-color: transparent; color: light-dark(rgb(0, 0, 0), rgb(255, 255, 255));&quot;&gt;)&lt;/span&gt;&lt;/div&gt;" style="text;strokeColor=none;fillColor=none;align=left;verticalAlign=top;spacingLeft=4;spacingRight=4;overflow=hidden;rotatable=0;points=[[0,0.5],[1,0.5]];portConstraint=eastwest;whiteSpace=wrap;html=1;fontFamily=Verdana;fontStyle=2" vertex="1" parent="ay0zXnUOLZ5nBZyVsYAX-43">
          <mxGeometry y="26" width="381" height="80" as="geometry" />
        </mxCell>
        <mxCell id="ay0zXnUOLZ5nBZyVsYAX-45" value="" style="verticalLabelPosition=bottom;verticalAlign=middle;html=1;shape=mxgraph.flowchart.summing_function;fontFamily=Helvetica;rounded=0;strokeColor=default;strokeWidth=3;align=center;fontSize=11;fontColor=default;labelBackgroundColor=default;" vertex="1" parent="1">
          <mxGeometry x="-1232.25" y="-1620" width="39" height="39" as="geometry" />
        </mxCell>
        <mxCell id="ay0zXnUOLZ5nBZyVsYAX-46" value="" style="verticalLabelPosition=bottom;verticalAlign=middle;html=1;shape=mxgraph.flowchart.summing_function;fontFamily=Helvetica;rounded=0;strokeColor=default;strokeWidth=3;align=center;fontSize=11;fontColor=default;labelBackgroundColor=default;" vertex="1" parent="1">
          <mxGeometry x="-1221.25" y="-1360" width="39" height="39" as="geometry" />
        </mxCell>
        <mxCell id="ay0zXnUOLZ5nBZyVsYAX-47" value="out_season_list (List)" style="swimlane;fontStyle=0;childLayout=stackLayout;horizontal=1;startSize=20;fillColor=#fff2cc;horizontalStack=0;resizeParent=1;resizeParentMax=0;resizeLast=0;collapsible=1;marginBottom=0;fontFamily=Times New Roman, SimSun;swimlaneLine=1;strokeWidth=2;strokeColor=#d6b656;" vertex="1" parent="1">
          <mxGeometry x="-1437" y="-1304" width="144" height="124" as="geometry">
            <mxRectangle x="358.25" y="-124" width="120" height="40" as="alternateBounds" />
          </mxGeometry>
        </mxCell>
        <mxCell id="ay0zXnUOLZ5nBZyVsYAX-48" value="&lt;div style=&quot;&quot;&gt;[0]:Tensor(224&lt;span style=&quot;background-color: transparent; color: light-dark(rgb(0, 0, 0), rgb(255, 255, 255));&quot;&gt;,96&lt;/span&gt;&lt;span style=&quot;background-color: transparent; color: light-dark(rgb(0, 0, 0), rgb(255, 255, 255));&quot;&gt;,16&lt;/span&gt;&lt;span style=&quot;background-color: transparent; color: light-dark(rgb(0, 0, 0), rgb(255, 255, 255));&quot;&gt;)&lt;/span&gt;&lt;/div&gt;" style="text;strokeColor=#d6b656;fillColor=#fff2cc;align=center;verticalAlign=top;spacingLeft=4;spacingRight=4;overflow=hidden;rotatable=0;points=[[0,0.5],[1,0.5]];portConstraint=eastwest;whiteSpace=wrap;html=1;fontFamily=Times New Roman, SimSun;" vertex="1" parent="ay0zXnUOLZ5nBZyVsYAX-47">
          <mxGeometry y="20" width="144" height="26" as="geometry" />
        </mxCell>
        <mxCell id="ay0zXnUOLZ5nBZyVsYAX-49" value="&lt;span style=&quot;&quot;&gt;[1]:Tensor(&lt;/span&gt;&lt;span style=&quot;&quot;&gt;224&lt;/span&gt;,48,16&lt;span style=&quot;&quot;&gt;)&lt;/span&gt;" style="text;strokeColor=#d6b656;fillColor=#fff2cc;align=center;verticalAlign=top;spacingLeft=4;spacingRight=4;overflow=hidden;rotatable=0;points=[[0,0.5],[1,0.5]];portConstraint=eastwest;whiteSpace=wrap;html=1;fontFamily=Times New Roman, SimSun;fontSize=12;fontColor=default;" vertex="1" parent="ay0zXnUOLZ5nBZyVsYAX-47">
          <mxGeometry y="46" width="144" height="26" as="geometry" />
        </mxCell>
        <mxCell id="ay0zXnUOLZ5nBZyVsYAX-50" value="&lt;span style=&quot;&quot;&gt;[2]:Tensor(&lt;/span&gt;&lt;span style=&quot;&quot;&gt;224&lt;/span&gt;,24,16&lt;span style=&quot;&quot;&gt;)&lt;/span&gt;" style="text;strokeColor=#d6b656;fillColor=#fff2cc;align=center;verticalAlign=top;spacingLeft=4;spacingRight=4;overflow=hidden;rotatable=0;points=[[0,0.5],[1,0.5]];portConstraint=eastwest;whiteSpace=wrap;html=1;fontFamily=Times New Roman, SimSun;" vertex="1" parent="ay0zXnUOLZ5nBZyVsYAX-47">
          <mxGeometry y="72" width="144" height="26" as="geometry" />
        </mxCell>
        <mxCell id="ay0zXnUOLZ5nBZyVsYAX-51" value="&lt;span style=&quot;&quot;&gt;[3]:Tensor(&lt;/span&gt;&lt;span style=&quot;&quot;&gt;224&lt;/span&gt;,12,16&lt;span style=&quot;&quot;&gt;)&lt;/span&gt;" style="text;strokeColor=#d6b656;fillColor=#fff2cc;align=center;verticalAlign=top;spacingLeft=5;spacingRight=5;overflow=hidden;rotatable=0;points=[[0,0.5],[1,0.5]];portConstraint=eastwest;whiteSpace=wrap;html=1;fontFamily=Times New Roman, SimSun;" vertex="1" parent="ay0zXnUOLZ5nBZyVsYAX-47">
          <mxGeometry y="98" width="144" height="26" as="geometry" />
        </mxCell>
        <mxCell id="ay0zXnUOLZ5nBZyVsYAX-52" value="out_trend_list (List)" style="swimlane;fontStyle=0;childLayout=stackLayout;horizontal=1;startSize=20;fillColor=#fff2cc;horizontalStack=0;resizeParent=1;resizeParentMax=0;resizeLast=0;collapsible=1;marginBottom=0;fontFamily=Times New Roman, SimSun;swimlaneLine=1;strokeWidth=2;strokeColor=#d6b656;" vertex="1" parent="1">
          <mxGeometry x="-1057" y="-1304" width="144" height="124" as="geometry">
            <mxRectangle x="358.25" y="-124" width="120" height="40" as="alternateBounds" />
          </mxGeometry>
        </mxCell>
        <mxCell id="ay0zXnUOLZ5nBZyVsYAX-53" value="&lt;div style=&quot;&quot;&gt;[0]:Tensor(224&lt;span style=&quot;background-color: transparent; color: light-dark(rgb(0, 0, 0), rgb(255, 255, 255));&quot;&gt;,96&lt;/span&gt;&lt;span style=&quot;background-color: transparent; color: light-dark(rgb(0, 0, 0), rgb(255, 255, 255));&quot;&gt;,16&lt;/span&gt;&lt;span style=&quot;background-color: transparent; color: light-dark(rgb(0, 0, 0), rgb(255, 255, 255));&quot;&gt;)&lt;/span&gt;&lt;/div&gt;" style="text;strokeColor=#d6b656;fillColor=#fff2cc;align=center;verticalAlign=top;spacingLeft=4;spacingRight=4;overflow=hidden;rotatable=0;points=[[0,0.5],[1,0.5]];portConstraint=eastwest;whiteSpace=wrap;html=1;fontFamily=Times New Roman, SimSun;" vertex="1" parent="ay0zXnUOLZ5nBZyVsYAX-52">
          <mxGeometry y="20" width="144" height="26" as="geometry" />
        </mxCell>
        <mxCell id="ay0zXnUOLZ5nBZyVsYAX-54" value="&lt;span style=&quot;&quot;&gt;[1]:Tensor(&lt;/span&gt;&lt;span style=&quot;&quot;&gt;224&lt;/span&gt;,48,16&lt;span style=&quot;&quot;&gt;)&lt;/span&gt;" style="text;strokeColor=#d6b656;fillColor=#fff2cc;align=center;verticalAlign=top;spacingLeft=4;spacingRight=4;overflow=hidden;rotatable=0;points=[[0,0.5],[1,0.5]];portConstraint=eastwest;whiteSpace=wrap;html=1;fontFamily=Times New Roman, SimSun;fontSize=12;fontColor=default;" vertex="1" parent="ay0zXnUOLZ5nBZyVsYAX-52">
          <mxGeometry y="46" width="144" height="26" as="geometry" />
        </mxCell>
        <mxCell id="ay0zXnUOLZ5nBZyVsYAX-55" value="&lt;span style=&quot;&quot;&gt;[2]:Tensor(&lt;/span&gt;&lt;span style=&quot;&quot;&gt;224&lt;/span&gt;,24,16&lt;span style=&quot;&quot;&gt;)&lt;/span&gt;" style="text;strokeColor=#d6b656;fillColor=#fff2cc;align=center;verticalAlign=top;spacingLeft=4;spacingRight=4;overflow=hidden;rotatable=0;points=[[0,0.5],[1,0.5]];portConstraint=eastwest;whiteSpace=wrap;html=1;fontFamily=Times New Roman, SimSun;" vertex="1" parent="ay0zXnUOLZ5nBZyVsYAX-52">
          <mxGeometry y="72" width="144" height="26" as="geometry" />
        </mxCell>
        <mxCell id="ay0zXnUOLZ5nBZyVsYAX-56" value="&lt;span style=&quot;&quot;&gt;[3]:Tensor(&lt;/span&gt;&lt;span style=&quot;&quot;&gt;224&lt;/span&gt;,12,16&lt;span style=&quot;&quot;&gt;)&lt;/span&gt;" style="text;strokeColor=#d6b656;fillColor=#fff2cc;align=center;verticalAlign=top;spacingLeft=5;spacingRight=5;overflow=hidden;rotatable=0;points=[[0,0.5],[1,0.5]];portConstraint=eastwest;whiteSpace=wrap;html=1;fontFamily=Times New Roman, SimSun;" vertex="1" parent="ay0zXnUOLZ5nBZyVsYAX-52">
          <mxGeometry y="98" width="144" height="26" as="geometry" />
        </mxCell>
        <mxCell id="ay0zXnUOLZ5nBZyVsYAX-57" style="edgeStyle=orthogonalEdgeStyle;rounded=0;orthogonalLoop=1;jettySize=auto;html=1;exitX=0.5;exitY=0;exitDx=0;exitDy=0;entryX=0;entryY=0.25;entryDx=0;entryDy=0;strokeColor=default;strokeWidth=3;align=center;verticalAlign=middle;fontFamily=Helvetica;fontSize=11;fontColor=default;labelBackgroundColor=default;endArrow=classic;" edge="1" parent="1" source="ay0zXnUOLZ5nBZyVsYAX-58" target="ay0zXnUOLZ5nBZyVsYAX-47">
          <mxGeometry relative="1" as="geometry" />
        </mxCell>
        <mxCell id="ay0zXnUOLZ5nBZyVsYAX-58" value="&lt;b&gt;&lt;i&gt;mixing_multi_scale_season&lt;/i&gt;&lt;/b&gt;" style="swimlane;fontStyle=0;childLayout=stackLayout;horizontal=1;startSize=26;fillColor=#dae8fc;horizontalStack=0;resizeParent=1;resizeParentMax=0;resizeLast=0;collapsible=1;marginBottom=0;html=1;fontFamily=Times New Roman, SimSun;strokeColor=#6c8ebf;dashed=1;strokeWidth=2;" vertex="1" parent="1">
          <mxGeometry x="-1870" y="-1210" width="386" height="240" as="geometry" />
        </mxCell>
        <mxCell id="ay0zXnUOLZ5nBZyVsYAX-59" value="&lt;div style=&quot;text-wrap-mode: nowrap;&quot;&gt;MultiScaleSeasonMixing(&lt;/div&gt;&lt;div style=&quot;text-wrap-mode: nowrap;&quot;&gt;&amp;nbsp; (down_sampling_layers): ModuleList(&lt;/div&gt;&lt;div style=&quot;text-wrap-mode: nowrap;&quot;&gt;&amp;nbsp; &amp;nbsp; (0): Sequential(&lt;/div&gt;&lt;div style=&quot;text-wrap-mode: nowrap;&quot;&gt;&amp;nbsp; &amp;nbsp; &amp;nbsp; (0): Linear(in_features=96, out_features=48, bias=True)&lt;/div&gt;&lt;div style=&quot;text-wrap-mode: nowrap;&quot;&gt;&amp;nbsp; &amp;nbsp; &amp;nbsp; (1): GELU(approximate=&#39;none&#39;)&lt;/div&gt;&lt;div style=&quot;text-wrap-mode: nowrap;&quot;&gt;&amp;nbsp; &amp;nbsp; &amp;nbsp; (2): Linear(in_features=48, out_features=48, bias=True)&lt;/div&gt;&lt;div style=&quot;text-wrap-mode: nowrap;&quot;&gt;&amp;nbsp; &amp;nbsp; (1): Sequential(&lt;/div&gt;&lt;div style=&quot;text-wrap-mode: nowrap;&quot;&gt;&amp;nbsp; &amp;nbsp; &amp;nbsp; (0): Linear(in_features=48, out_features=24, bias=True)&lt;/div&gt;&lt;div style=&quot;text-wrap-mode: nowrap;&quot;&gt;&amp;nbsp; &amp;nbsp; &amp;nbsp; (1): GELU(approximate=&#39;none&#39;)&lt;/div&gt;&lt;div style=&quot;text-wrap-mode: nowrap;&quot;&gt;&amp;nbsp; &amp;nbsp; &amp;nbsp; (2): Linear(in_features=24, out_features=24, bias=True)&lt;/div&gt;&lt;div style=&quot;text-wrap-mode: nowrap;&quot;&gt;&amp;nbsp; &amp;nbsp; (2): Sequential(&lt;/div&gt;&lt;div style=&quot;text-wrap-mode: nowrap;&quot;&gt;&amp;nbsp; &amp;nbsp; &amp;nbsp; (0): Linear(in_features=24, out_features=12, bias=True)&lt;/div&gt;&lt;div style=&quot;text-wrap-mode: nowrap;&quot;&gt;&amp;nbsp; &amp;nbsp; &amp;nbsp; (1): GELU(approximate=&#39;none&#39;)&lt;/div&gt;&lt;div style=&quot;text-wrap-mode: nowrap;&quot;&gt;&amp;nbsp; &amp;nbsp; &amp;nbsp; (2): Linear(in_features=12, out_features=12, bias=True)&lt;span style=&quot;background-color: transparent; color: light-dark(rgb(0, 0, 0), rgb(255, 255, 255));&quot;&gt;)&lt;/span&gt;&lt;/div&gt;" style="text;strokeColor=none;fillColor=none;align=left;verticalAlign=top;spacingLeft=4;spacingRight=4;overflow=hidden;rotatable=0;points=[[0,0.5],[1,0.5]];portConstraint=eastwest;whiteSpace=wrap;html=1;fontFamily=Verdana;fontStyle=2" vertex="1" parent="ay0zXnUOLZ5nBZyVsYAX-58">
          <mxGeometry y="26" width="386" height="214" as="geometry" />
        </mxCell>
        <mxCell id="ay0zXnUOLZ5nBZyVsYAX-60" style="edgeStyle=orthogonalEdgeStyle;rounded=0;orthogonalLoop=1;jettySize=auto;html=1;exitX=0.5;exitY=0;exitDx=0;exitDy=0;entryX=1;entryY=0.25;entryDx=0;entryDy=0;strokeColor=default;strokeWidth=3;align=center;verticalAlign=middle;fontFamily=Helvetica;fontSize=11;fontColor=default;labelBackgroundColor=default;endArrow=classic;" edge="1" parent="1" source="ay0zXnUOLZ5nBZyVsYAX-61" target="ay0zXnUOLZ5nBZyVsYAX-52">
          <mxGeometry relative="1" as="geometry" />
        </mxCell>
        <mxCell id="ay0zXnUOLZ5nBZyVsYAX-61" value="&lt;b&gt;&lt;i&gt;mixing_multi_scale_trend&lt;/i&gt;&lt;/b&gt;" style="swimlane;fontStyle=0;childLayout=stackLayout;horizontal=1;startSize=26;fillColor=#dae8fc;horizontalStack=0;resizeParent=1;resizeParentMax=0;resizeLast=0;collapsible=1;marginBottom=0;html=1;fontFamily=Times New Roman, SimSun;strokeWidth=2;dashed=1;strokeColor=#6c8ebf;" vertex="1" parent="1">
          <mxGeometry x="-800" y="-1200" width="390" height="280" as="geometry" />
        </mxCell>
        <mxCell id="ay0zXnUOLZ5nBZyVsYAX-62" value="&lt;div style=&quot;text-wrap-mode: nowrap;&quot;&gt;&lt;div&gt;MultiScaleTrendMixing(&lt;/div&gt;&lt;div&gt;&amp;nbsp; (up_sampling_layers): ModuleList(&lt;/div&gt;&lt;div&gt;&amp;nbsp; &amp;nbsp; (0): Sequential(&lt;/div&gt;&lt;div&gt;&amp;nbsp; &amp;nbsp; &amp;nbsp; (0): Linear(in_features=12, out_features=24, bias=True)&lt;/div&gt;&lt;div&gt;&amp;nbsp; &amp;nbsp; &amp;nbsp; (1): GELU(approximate=&#39;none&#39;)&lt;/div&gt;&lt;div&gt;&amp;nbsp; &amp;nbsp; &amp;nbsp; (2): Linear(in_features=24, out_features=24, bias=True)&lt;/div&gt;&lt;div&gt;&amp;nbsp; &amp;nbsp; )&lt;/div&gt;&lt;div&gt;&amp;nbsp; &amp;nbsp; (1): Sequential(&lt;/div&gt;&lt;div&gt;&amp;nbsp; &amp;nbsp; &amp;nbsp; (0): Linear(in_features=24, out_features=48, bias=True)&lt;/div&gt;&lt;div&gt;&amp;nbsp; &amp;nbsp; &amp;nbsp; (1): GELU(approximate=&#39;none&#39;)&lt;/div&gt;&lt;div&gt;&amp;nbsp; &amp;nbsp; &amp;nbsp; (2): Linear(in_features=48, out_features=48, bias=True)&lt;/div&gt;&lt;div&gt;&amp;nbsp; &amp;nbsp; )&lt;/div&gt;&lt;div&gt;&amp;nbsp; &amp;nbsp; (2): Sequential(&lt;/div&gt;&lt;div&gt;&amp;nbsp; &amp;nbsp; &amp;nbsp; (0): Linear(in_features=48, out_features=96, bias=True)&lt;/div&gt;&lt;div&gt;&amp;nbsp; &amp;nbsp; &amp;nbsp; (1): GELU(approximate=&#39;none&#39;)&lt;/div&gt;&lt;div&gt;&amp;nbsp; &amp;nbsp; &amp;nbsp; (2): Linear(in_features=96, out_features=96, bias=True)&lt;/div&gt;&lt;/div&gt;" style="text;strokeColor=none;fillColor=none;align=left;verticalAlign=top;spacingLeft=4;spacingRight=4;overflow=hidden;rotatable=0;points=[[0,0.5],[1,0.5]];portConstraint=eastwest;whiteSpace=wrap;html=1;fontFamily=Verdana;fontStyle=2" vertex="1" parent="ay0zXnUOLZ5nBZyVsYAX-61">
          <mxGeometry y="26" width="390" height="254" as="geometry" />
        </mxCell>
        <mxCell id="ay0zXnUOLZ5nBZyVsYAX-63" value="season_list (List)" style="swimlane;fontStyle=0;childLayout=stackLayout;horizontal=1;startSize=20;fillColor=#fff2cc;horizontalStack=0;resizeParent=1;resizeParentMax=0;resizeLast=0;collapsible=1;marginBottom=0;fontFamily=Times New Roman, SimSun;swimlaneLine=1;strokeWidth=2;strokeColor=#d6b656;" vertex="1" parent="1">
          <mxGeometry x="-1477" y="-920" width="144" height="124" as="geometry">
            <mxRectangle x="358.25" y="-124" width="120" height="40" as="alternateBounds" />
          </mxGeometry>
        </mxCell>
        <mxCell id="ay0zXnUOLZ5nBZyVsYAX-64" value="&lt;div style=&quot;&quot;&gt;[0]:Tensor(224,16&lt;span style=&quot;background-color: transparent; color: light-dark(rgb(0, 0, 0), rgb(255, 255, 255));&quot;&gt;,96&lt;/span&gt;&lt;span style=&quot;background-color: transparent; color: light-dark(rgb(0, 0, 0), rgb(255, 255, 255));&quot;&gt;)&lt;/span&gt;&lt;/div&gt;" style="text;strokeColor=#d6b656;fillColor=#fff2cc;align=center;verticalAlign=top;spacingLeft=4;spacingRight=4;overflow=hidden;rotatable=0;points=[[0,0.5],[1,0.5]];portConstraint=eastwest;whiteSpace=wrap;html=1;fontFamily=Times New Roman, SimSun;" vertex="1" parent="ay0zXnUOLZ5nBZyVsYAX-63">
          <mxGeometry y="20" width="144" height="26" as="geometry" />
        </mxCell>
        <mxCell id="ay0zXnUOLZ5nBZyVsYAX-65" value="&lt;span style=&quot;&quot;&gt;[1]:Tensor(&lt;/span&gt;&lt;span style=&quot;&quot;&gt;224,16&lt;/span&gt;,48&lt;span style=&quot;&quot;&gt;)&lt;/span&gt;" style="text;strokeColor=#d6b656;fillColor=#fff2cc;align=center;verticalAlign=top;spacingLeft=4;spacingRight=4;overflow=hidden;rotatable=0;points=[[0,0.5],[1,0.5]];portConstraint=eastwest;whiteSpace=wrap;html=1;fontFamily=Times New Roman, SimSun;fontSize=12;fontColor=default;" vertex="1" parent="ay0zXnUOLZ5nBZyVsYAX-63">
          <mxGeometry y="46" width="144" height="26" as="geometry" />
        </mxCell>
        <mxCell id="ay0zXnUOLZ5nBZyVsYAX-66" value="&lt;span style=&quot;&quot;&gt;[2]:Tensor(&lt;/span&gt;&lt;span style=&quot;&quot;&gt;224,16&lt;/span&gt;,24&lt;span style=&quot;&quot;&gt;)&lt;/span&gt;" style="text;strokeColor=#d6b656;fillColor=#fff2cc;align=center;verticalAlign=top;spacingLeft=4;spacingRight=4;overflow=hidden;rotatable=0;points=[[0,0.5],[1,0.5]];portConstraint=eastwest;whiteSpace=wrap;html=1;fontFamily=Times New Roman, SimSun;" vertex="1" parent="ay0zXnUOLZ5nBZyVsYAX-63">
          <mxGeometry y="72" width="144" height="26" as="geometry" />
        </mxCell>
        <mxCell id="ay0zXnUOLZ5nBZyVsYAX-67" value="&lt;span style=&quot;&quot;&gt;[3]:Tensor(&lt;/span&gt;&lt;span style=&quot;&quot;&gt;224,16&lt;/span&gt;,12&lt;span style=&quot;&quot;&gt;)&lt;/span&gt;" style="text;strokeColor=#d6b656;fillColor=#fff2cc;align=center;verticalAlign=top;spacingLeft=5;spacingRight=5;overflow=hidden;rotatable=0;points=[[0,0.5],[1,0.5]];portConstraint=eastwest;whiteSpace=wrap;html=1;fontFamily=Times New Roman, SimSun;" vertex="1" parent="ay0zXnUOLZ5nBZyVsYAX-63">
          <mxGeometry y="98" width="144" height="26" as="geometry" />
        </mxCell>
        <mxCell id="ay0zXnUOLZ5nBZyVsYAX-68" value="trend_list (List)" style="swimlane;fontStyle=0;childLayout=stackLayout;horizontal=1;startSize=20;fillColor=#fff2cc;horizontalStack=0;resizeParent=1;resizeParentMax=0;resizeLast=0;collapsible=1;marginBottom=0;fontFamily=Times New Roman, SimSun;swimlaneLine=1;strokeWidth=2;strokeColor=#d6b656;" vertex="1" parent="1">
          <mxGeometry x="-988" y="-920" width="144" height="124" as="geometry">
            <mxRectangle x="358.25" y="-124" width="120" height="40" as="alternateBounds" />
          </mxGeometry>
        </mxCell>
        <mxCell id="ay0zXnUOLZ5nBZyVsYAX-69" value="&lt;div style=&quot;&quot;&gt;[0]:Tensor(224,16&lt;span style=&quot;background-color: transparent; color: light-dark(rgb(0, 0, 0), rgb(255, 255, 255));&quot;&gt;,96&lt;/span&gt;&lt;span style=&quot;background-color: transparent; color: light-dark(rgb(0, 0, 0), rgb(255, 255, 255));&quot;&gt;)&lt;/span&gt;&lt;/div&gt;" style="text;strokeColor=#d6b656;fillColor=#fff2cc;align=center;verticalAlign=top;spacingLeft=4;spacingRight=4;overflow=hidden;rotatable=0;points=[[0,0.5],[1,0.5]];portConstraint=eastwest;whiteSpace=wrap;html=1;fontFamily=Times New Roman, SimSun;" vertex="1" parent="ay0zXnUOLZ5nBZyVsYAX-68">
          <mxGeometry y="20" width="144" height="26" as="geometry" />
        </mxCell>
        <mxCell id="ay0zXnUOLZ5nBZyVsYAX-70" value="&lt;span style=&quot;&quot;&gt;[1]:Tensor(&lt;/span&gt;&lt;span style=&quot;&quot;&gt;224,16&lt;/span&gt;,48&lt;span style=&quot;&quot;&gt;)&lt;/span&gt;" style="text;strokeColor=#d6b656;fillColor=#fff2cc;align=center;verticalAlign=top;spacingLeft=4;spacingRight=4;overflow=hidden;rotatable=0;points=[[0,0.5],[1,0.5]];portConstraint=eastwest;whiteSpace=wrap;html=1;fontFamily=Times New Roman, SimSun;fontSize=12;fontColor=default;" vertex="1" parent="ay0zXnUOLZ5nBZyVsYAX-68">
          <mxGeometry y="46" width="144" height="26" as="geometry" />
        </mxCell>
        <mxCell id="ay0zXnUOLZ5nBZyVsYAX-71" value="&lt;span style=&quot;&quot;&gt;[2]:Tensor(&lt;/span&gt;&lt;span style=&quot;&quot;&gt;224,16&lt;/span&gt;,24&lt;span style=&quot;&quot;&gt;)&lt;/span&gt;" style="text;strokeColor=#d6b656;fillColor=#fff2cc;align=center;verticalAlign=top;spacingLeft=4;spacingRight=4;overflow=hidden;rotatable=0;points=[[0,0.5],[1,0.5]];portConstraint=eastwest;whiteSpace=wrap;html=1;fontFamily=Times New Roman, SimSun;" vertex="1" parent="ay0zXnUOLZ5nBZyVsYAX-68">
          <mxGeometry y="72" width="144" height="26" as="geometry" />
        </mxCell>
        <mxCell id="ay0zXnUOLZ5nBZyVsYAX-72" value="&lt;span style=&quot;&quot;&gt;[3]:Tensor(&lt;/span&gt;&lt;span style=&quot;&quot;&gt;224,16&lt;/span&gt;,12&lt;span style=&quot;&quot;&gt;)&lt;/span&gt;" style="text;strokeColor=#d6b656;fillColor=#fff2cc;align=center;verticalAlign=top;spacingLeft=5;spacingRight=5;overflow=hidden;rotatable=0;points=[[0,0.5],[1,0.5]];portConstraint=eastwest;whiteSpace=wrap;html=1;fontFamily=Times New Roman, SimSun;" vertex="1" parent="ay0zXnUOLZ5nBZyVsYAX-68">
          <mxGeometry y="98" width="144" height="26" as="geometry" />
        </mxCell>
        <mxCell id="ay0zXnUOLZ5nBZyVsYAX-73" value="pdm_blocks (PastDecomposableMixing)  1-st" style="swimlane;fontStyle=3;childLayout=stackLayout;horizontal=1;startSize=26;horizontalStack=0;resizeParent=1;resizeParentMax=0;resizeLast=0;collapsible=1;marginBottom=0;align=center;fontSize=14;fontFamily=Times New Roman, SimSun;strokeWidth=2;dashed=1;fillColor=#dae8fc;strokeColor=#6c8ebf;" vertex="1" parent="1">
          <mxGeometry x="-1331" y="-536" width="340" height="116" as="geometry">
            <mxRectangle x="310" y="-310" width="110" height="30" as="alternateBounds" />
          </mxGeometry>
        </mxCell>
        <mxCell id="ay0zXnUOLZ5nBZyVsYAX-74" value="season, trend = decompsition=&amp;nbsp;(avg): AvgPool1d(kernrl=25)" style="text;strokeColor=none;fillColor=none;spacingLeft=4;spacingRight=4;overflow=hidden;rotatable=0;points=[[0,0.5],[1,0.5]];portConstraint=eastwest;fontSize=12;whiteSpace=wrap;html=1;fontFamily=Times New Roman, SimSun;" vertex="1" parent="ay0zXnUOLZ5nBZyVsYAX-73">
          <mxGeometry y="26" width="340" height="30" as="geometry" />
        </mxCell>
        <mxCell id="ay0zXnUOLZ5nBZyVsYAX-75" value="mixing_multi_scale_season" style="text;strokeColor=none;fillColor=none;spacingLeft=4;spacingRight=4;overflow=hidden;rotatable=0;points=[[0,0.5],[1,0.5]];portConstraint=eastwest;fontSize=12;whiteSpace=wrap;html=1;fontFamily=Times New Roman, SimSun;" vertex="1" parent="ay0zXnUOLZ5nBZyVsYAX-73">
          <mxGeometry y="56" width="340" height="30" as="geometry" />
        </mxCell>
        <mxCell id="ay0zXnUOLZ5nBZyVsYAX-76" value="mixing_multi_scale_trend" style="text;strokeColor=none;fillColor=none;spacingLeft=4;spacingRight=4;overflow=hidden;rotatable=0;points=[[0,0.5],[1,0.5]];portConstraint=eastwest;fontSize=12;whiteSpace=wrap;html=1;fontFamily=Times New Roman, SimSun;" vertex="1" parent="ay0zXnUOLZ5nBZyVsYAX-73">
          <mxGeometry y="86" width="340" height="30" as="geometry" />
        </mxCell>
        <mxCell id="ay0zXnUOLZ5nBZyVsYAX-77" style="edgeStyle=orthogonalEdgeStyle;rounded=0;orthogonalLoop=1;jettySize=auto;html=1;exitX=0.25;exitY=0;exitDx=0;exitDy=0;entryX=1;entryY=0.5;entryDx=0;entryDy=0;strokeColor=default;strokeWidth=3;align=center;verticalAlign=middle;fontFamily=Helvetica;fontSize=11;fontColor=default;labelBackgroundColor=default;endArrow=classic;" edge="1" parent="1" source="ay0zXnUOLZ5nBZyVsYAX-79" target="ay0zXnUOLZ5nBZyVsYAX-67">
          <mxGeometry relative="1" as="geometry" />
        </mxCell>
        <mxCell id="ay0zXnUOLZ5nBZyVsYAX-78" style="edgeStyle=orthogonalEdgeStyle;rounded=0;orthogonalLoop=1;jettySize=auto;html=1;exitX=0.75;exitY=0;exitDx=0;exitDy=0;entryX=0;entryY=0.5;entryDx=0;entryDy=0;strokeColor=default;strokeWidth=3;align=center;verticalAlign=middle;fontFamily=Helvetica;fontSize=11;fontColor=default;labelBackgroundColor=default;endArrow=classic;" edge="1" parent="1" source="ay0zXnUOLZ5nBZyVsYAX-79" target="ay0zXnUOLZ5nBZyVsYAX-72">
          <mxGeometry relative="1" as="geometry" />
        </mxCell>
        <mxCell id="ay0zXnUOLZ5nBZyVsYAX-79" value="self.decompsition(series_decomp)" style="swimlane;fontStyle=0;childLayout=stackLayout;horizontal=1;startSize=26;horizontalStack=0;resizeParent=1;resizeParentMax=0;resizeLast=0;collapsible=1;marginBottom=0;align=center;fontSize=14;fontFamily=Times New Roman, SimSun;strokeWidth=2;dashed=1;fillColor=#dae8fc;strokeColor=#6c8ebf;" vertex="1" parent="1">
          <mxGeometry x="-1392" y="-693" width="462" height="90" as="geometry" />
        </mxCell>
        <mxCell id="ay0zXnUOLZ5nBZyVsYAX-80" value="&lt;div&gt;&amp;nbsp; &amp;nbsp;(decompsition): series_decomp(&lt;/div&gt;&lt;div&gt;&amp;nbsp; &amp;nbsp; &amp;nbsp; (moving_avg): moving_avg(&lt;/div&gt;&lt;div&gt;&amp;nbsp; &amp;nbsp; &amp;nbsp; &amp;nbsp; (avg): AvgPool1d(kernel_size=(25,), stride=(1,), padding=(0,))&lt;/div&gt;" style="text;strokeColor=none;fillColor=none;spacingLeft=4;spacingRight=4;overflow=hidden;rotatable=0;points=[[0,0.5],[1,0.5]];portConstraint=eastwest;fontSize=12;whiteSpace=wrap;html=1;fontFamily=Verdana;fontStyle=2" vertex="1" parent="ay0zXnUOLZ5nBZyVsYAX-79">
          <mxGeometry y="26" width="462" height="64" as="geometry" />
        </mxCell>
        <mxCell id="ay0zXnUOLZ5nBZyVsYAX-81" value="enc_out_list (List)" style="swimlane;fontStyle=0;childLayout=stackLayout;horizontal=1;startSize=20;fillColor=#fff2cc;horizontalStack=0;resizeParent=1;resizeParentMax=0;resizeLast=0;collapsible=1;marginBottom=0;fontFamily=Times New Roman, SimSun;swimlaneLine=1;strokeWidth=2;strokeColor=#d6b656;" vertex="1" parent="1">
          <mxGeometry x="-1238" y="-330" width="144" height="124" as="geometry">
            <mxRectangle x="358.25" y="-124" width="120" height="40" as="alternateBounds" />
          </mxGeometry>
        </mxCell>
        <mxCell id="ay0zXnUOLZ5nBZyVsYAX-82" value="&lt;div style=&quot;&quot;&gt;[0]:Tensor(224,96,16)&lt;/div&gt;" style="text;strokeColor=#d6b656;fillColor=#fff2cc;align=center;verticalAlign=top;spacingLeft=4;spacingRight=4;overflow=hidden;rotatable=0;points=[[0,0.5],[1,0.5]];portConstraint=eastwest;whiteSpace=wrap;html=1;fontFamily=Times New Roman, SimSun;" vertex="1" parent="ay0zXnUOLZ5nBZyVsYAX-81">
          <mxGeometry y="20" width="144" height="26" as="geometry" />
        </mxCell>
        <mxCell id="ay0zXnUOLZ5nBZyVsYAX-83" value="&lt;span style=&quot;&quot;&gt;[1]:Tensor(&lt;/span&gt;&lt;span style=&quot;&quot;&gt;224,48,16&lt;/span&gt;&lt;span style=&quot;&quot;&gt;)&lt;/span&gt;" style="text;strokeColor=#d6b656;fillColor=#fff2cc;align=center;verticalAlign=top;spacingLeft=4;spacingRight=4;overflow=hidden;rotatable=0;points=[[0,0.5],[1,0.5]];portConstraint=eastwest;whiteSpace=wrap;html=1;fontFamily=Times New Roman, SimSun;fontSize=12;fontColor=default;" vertex="1" parent="ay0zXnUOLZ5nBZyVsYAX-81">
          <mxGeometry y="46" width="144" height="26" as="geometry" />
        </mxCell>
        <mxCell id="ay0zXnUOLZ5nBZyVsYAX-84" value="&lt;span style=&quot;&quot;&gt;[2]:Tensor(&lt;/span&gt;&lt;span style=&quot;&quot;&gt;224,24,16&lt;/span&gt;&lt;span style=&quot;&quot;&gt;)&lt;/span&gt;" style="text;strokeColor=#d6b656;fillColor=#fff2cc;align=center;verticalAlign=top;spacingLeft=4;spacingRight=4;overflow=hidden;rotatable=0;points=[[0,0.5],[1,0.5]];portConstraint=eastwest;whiteSpace=wrap;html=1;fontFamily=Times New Roman, SimSun;" vertex="1" parent="ay0zXnUOLZ5nBZyVsYAX-81">
          <mxGeometry y="72" width="144" height="26" as="geometry" />
        </mxCell>
        <mxCell id="ay0zXnUOLZ5nBZyVsYAX-85" value="&lt;span style=&quot;&quot;&gt;[3]:Tensor(&lt;/span&gt;&lt;span style=&quot;&quot;&gt;224,12,16&lt;/span&gt;&lt;span style=&quot;&quot;&gt;)&lt;/span&gt;" style="text;strokeColor=#d6b656;fillColor=#fff2cc;align=center;verticalAlign=top;spacingLeft=5;spacingRight=5;overflow=hidden;rotatable=0;points=[[0,0.5],[1,0.5]];portConstraint=eastwest;whiteSpace=wrap;html=1;fontFamily=Times New Roman, SimSun;" vertex="1" parent="ay0zXnUOLZ5nBZyVsYAX-81">
          <mxGeometry y="98" width="144" height="26" as="geometry" />
        </mxCell>
        <mxCell id="ay0zXnUOLZ5nBZyVsYAX-86" style="edgeStyle=orthogonalEdgeStyle;rounded=0;orthogonalLoop=1;jettySize=auto;html=1;exitX=0.5;exitY=0;exitDx=0;exitDy=0;entryX=0.5;entryY=1;entryDx=0;entryDy=0;strokeColor=default;strokeWidth=3;align=center;verticalAlign=middle;fontFamily=Helvetica;fontSize=11;fontColor=default;labelBackgroundColor=default;endArrow=classic;" edge="1" parent="1" source="ay0zXnUOLZ5nBZyVsYAX-87" target="ay0zXnUOLZ5nBZyVsYAX-81">
          <mxGeometry relative="1" as="geometry" />
        </mxCell>
        <mxCell id="ay0zXnUOLZ5nBZyVsYAX-87" value="enc_embedding(DataEmbedding_wo_pos)" style="swimlane;fontStyle=3;childLayout=stackLayout;horizontal=1;startSize=20;fillColor=#dae8fc;horizontalStack=0;resizeParent=1;resizeParentMax=0;resizeLast=0;collapsible=1;marginBottom=0;fontFamily=Times New Roman, SimSun;swimlaneLine=1;strokeWidth=2;strokeColor=#6c8ebf;dashed=1;" vertex="1" parent="1">
          <mxGeometry x="-1329.6499999999999" y="-162" width="327.31" height="72" as="geometry">
            <mxRectangle x="322" y="120" width="160.5" height="40" as="alternateBounds" />
          </mxGeometry>
        </mxCell>
        <mxCell id="ay0zXnUOLZ5nBZyVsYAX-88" value="&lt;div style=&quot;text-align: center;&quot;&gt;&lt;span style=&quot;background-color: transparent; text-wrap-mode: nowrap;&quot;&gt;value_embedding (&lt;/span&gt;&lt;span style=&quot;background-color: transparent; text-align: left; text-wrap-mode: nowrap;&quot;&gt;Conv1d(in=1,out=16,k=3,s=1,p=1)&lt;/span&gt;&lt;span style=&quot;background-color: transparent; text-wrap-mode: nowrap; color: light-dark(rgb(0, 0, 0), rgb(255, 255, 255));&quot;&gt;)&lt;/span&gt;&lt;/div&gt;" style="text;strokeColor=none;fillColor=none;align=left;verticalAlign=top;spacingLeft=4;spacingRight=4;overflow=hidden;rotatable=0;points=[[0,0.5],[1,0.5]];portConstraint=eastwest;whiteSpace=wrap;html=1;fontFamily=Verdana;" vertex="1" parent="ay0zXnUOLZ5nBZyVsYAX-87">
          <mxGeometry y="20" width="327.31" height="26" as="geometry" />
        </mxCell>
        <mxCell id="ay0zXnUOLZ5nBZyVsYAX-89" value="&lt;div style=&quot;text-align: center;&quot;&gt;&lt;span style=&quot;background-color: transparent; text-wrap-mode: nowrap;&quot;&gt;temporal_embedding(&lt;/span&gt;&lt;span style=&quot;background-color: transparent; text-align: left; text-wrap-mode: nowrap;&quot;&gt;Linear(4, 16&lt;/span&gt;&lt;span style=&quot;background-color: transparent; text-wrap-mode: nowrap; color: light-dark(rgb(0, 0, 0), rgb(255, 255, 255));&quot;&gt;)&lt;/span&gt;&lt;/div&gt;" style="text;strokeColor=none;fillColor=none;align=left;verticalAlign=top;spacingLeft=4;spacingRight=4;overflow=hidden;rotatable=0;points=[[0,0.5],[1,0.5]];portConstraint=eastwest;whiteSpace=wrap;html=1;fontFamily=Verdana;" vertex="1" parent="ay0zXnUOLZ5nBZyVsYAX-87">
          <mxGeometry y="46" width="327.31" height="26" as="geometry" />
        </mxCell>
        <mxCell id="ay0zXnUOLZ5nBZyVsYAX-90" value="x_list (List)" style="swimlane;fontStyle=0;childLayout=stackLayout;horizontal=1;startSize=20;fillColor=#fff2cc;horizontalStack=0;resizeParent=1;resizeParentMax=0;resizeLast=0;collapsible=1;marginBottom=0;fontFamily=Times New Roman, SimSun;swimlaneLine=1;strokeWidth=2;strokeColor=#d6b656;" vertex="1" parent="1">
          <mxGeometry x="-1317" y="-40" width="120" height="124" as="geometry">
            <mxRectangle x="-1450" width="120" height="40" as="alternateBounds" />
          </mxGeometry>
        </mxCell>
        <mxCell id="ay0zXnUOLZ5nBZyVsYAX-91" value="&lt;div style=&quot;&quot;&gt;[0]:Tensor(224,96,1)&lt;/div&gt;" style="text;strokeColor=#d6b656;fillColor=#fff2cc;align=center;verticalAlign=top;spacingLeft=4;spacingRight=4;overflow=hidden;rotatable=0;points=[[0,0.5],[1,0.5]];portConstraint=eastwest;whiteSpace=wrap;html=1;fontFamily=Times New Roman, SimSun;" vertex="1" parent="ay0zXnUOLZ5nBZyVsYAX-90">
          <mxGeometry y="20" width="120" height="26" as="geometry" />
        </mxCell>
        <mxCell id="ay0zXnUOLZ5nBZyVsYAX-92" value="&lt;span style=&quot;&quot;&gt;[1]:Tensor(&lt;/span&gt;&lt;span style=&quot;&quot;&gt;224,48,1&lt;/span&gt;&lt;span style=&quot;&quot;&gt;)&lt;/span&gt;" style="text;strokeColor=#d6b656;fillColor=#fff2cc;align=center;verticalAlign=top;spacingLeft=4;spacingRight=4;overflow=hidden;rotatable=0;points=[[0,0.5],[1,0.5]];portConstraint=eastwest;whiteSpace=wrap;html=1;fontFamily=Times New Roman, SimSun;fontSize=12;fontColor=default;" vertex="1" parent="ay0zXnUOLZ5nBZyVsYAX-90">
          <mxGeometry y="46" width="120" height="26" as="geometry" />
        </mxCell>
        <mxCell id="ay0zXnUOLZ5nBZyVsYAX-93" value="&lt;span style=&quot;&quot;&gt;[2]:Tensor(&lt;/span&gt;&lt;span style=&quot;&quot;&gt;224,24,1&lt;/span&gt;&lt;span style=&quot;&quot;&gt;)&lt;/span&gt;" style="text;strokeColor=#d6b656;fillColor=#fff2cc;align=center;verticalAlign=top;spacingLeft=4;spacingRight=4;overflow=hidden;rotatable=0;points=[[0,0.5],[1,0.5]];portConstraint=eastwest;whiteSpace=wrap;html=1;fontFamily=Times New Roman, SimSun;" vertex="1" parent="ay0zXnUOLZ5nBZyVsYAX-90">
          <mxGeometry y="72" width="120" height="26" as="geometry" />
        </mxCell>
        <mxCell id="ay0zXnUOLZ5nBZyVsYAX-94" value="&lt;span style=&quot;&quot;&gt;[3]:Tensor(&lt;/span&gt;&lt;span style=&quot;&quot;&gt;224,12,1&lt;/span&gt;&lt;span style=&quot;&quot;&gt;)&lt;/span&gt;" style="text;strokeColor=#d6b656;fillColor=#fff2cc;align=center;verticalAlign=top;spacingLeft=5;spacingRight=5;overflow=hidden;rotatable=0;points=[[0,0.5],[1,0.5]];portConstraint=eastwest;whiteSpace=wrap;html=1;fontFamily=Times New Roman, SimSun;" vertex="1" parent="ay0zXnUOLZ5nBZyVsYAX-90">
          <mxGeometry y="98" width="120" height="26" as="geometry" />
        </mxCell>
        <mxCell id="ay0zXnUOLZ5nBZyVsYAX-95" value="x_mark_list (List)" style="swimlane;fontStyle=0;childLayout=stackLayout;horizontal=1;startSize=20;fillColor=#fff2cc;horizontalStack=0;resizeParent=1;resizeParentMax=0;resizeLast=0;collapsible=1;marginBottom=0;fontFamily=Times New Roman, SimSun;swimlaneLine=1;strokeWidth=2;strokeColor=#d6b656;align=center;" vertex="1" parent="1">
          <mxGeometry x="-1128" y="-38" width="120" height="120" as="geometry">
            <mxRectangle x="-1120" width="120" height="40" as="alternateBounds" />
          </mxGeometry>
        </mxCell>
        <mxCell id="ay0zXnUOLZ5nBZyVsYAX-96" value="&lt;div style=&quot;&quot;&gt;[0]:Tensor(224,96,4)&lt;/div&gt;" style="text;strokeColor=#d6b656;fillColor=#fff2cc;align=center;verticalAlign=top;spacingLeft=4;spacingRight=4;overflow=hidden;rotatable=0;points=[[0,0.5],[1,0.5]];portConstraint=eastwest;whiteSpace=wrap;html=1;fontFamily=Times New Roman, SimSun;" vertex="1" parent="ay0zXnUOLZ5nBZyVsYAX-95">
          <mxGeometry y="20" width="120" height="26" as="geometry" />
        </mxCell>
        <mxCell id="ay0zXnUOLZ5nBZyVsYAX-97" value="&lt;span style=&quot;&quot;&gt;[1]:Tensor(&lt;/span&gt;224,48,4&lt;span style=&quot;&quot;&gt;)&lt;/span&gt;" style="text;strokeColor=#d6b656;fillColor=#fff2cc;align=center;verticalAlign=top;spacingLeft=4;spacingRight=4;overflow=hidden;rotatable=0;points=[[0,0.5],[1,0.5]];portConstraint=eastwest;whiteSpace=wrap;html=1;fontFamily=Times New Roman, SimSun;" vertex="1" parent="ay0zXnUOLZ5nBZyVsYAX-95">
          <mxGeometry y="46" width="120" height="26" as="geometry" />
        </mxCell>
        <mxCell id="ay0zXnUOLZ5nBZyVsYAX-98" value="&lt;span style=&quot;&quot;&gt;[2]:Tensor(224,24,4)&lt;/span&gt;" style="text;strokeColor=#d6b656;fillColor=#fff2cc;align=center;verticalAlign=top;spacingLeft=4;spacingRight=4;overflow=hidden;rotatable=0;points=[[0,0.5],[1,0.5]];portConstraint=eastwest;whiteSpace=wrap;html=1;fontFamily=Times New Roman, SimSun;" vertex="1" parent="ay0zXnUOLZ5nBZyVsYAX-95">
          <mxGeometry y="72" width="120" height="26" as="geometry" />
        </mxCell>
        <mxCell id="ay0zXnUOLZ5nBZyVsYAX-99" value="&lt;span style=&quot;&quot;&gt;[3]:Tensor(224,12,4)&lt;/span&gt;" style="text;strokeColor=#d6b656;fillColor=#fff2cc;align=center;verticalAlign=top;spacingLeft=5;spacingRight=5;overflow=hidden;rotatable=0;points=[[0,0.5],[1,0.5]];portConstraint=eastwest;whiteSpace=wrap;html=1;fontFamily=Times New Roman, SimSun;" vertex="1" parent="ay0zXnUOLZ5nBZyVsYAX-95">
          <mxGeometry y="98" width="120" height="22" as="geometry" />
        </mxCell>
        <mxCell id="ay0zXnUOLZ5nBZyVsYAX-100" style="edgeStyle=orthogonalEdgeStyle;rounded=0;orthogonalLoop=1;jettySize=auto;html=1;exitX=0.5;exitY=0;exitDx=0;exitDy=0;entryX=0.25;entryY=1;entryDx=0;entryDy=0;strokeColor=default;strokeWidth=3;align=center;verticalAlign=middle;fontFamily=Helvetica;fontSize=11;fontColor=default;labelBackgroundColor=default;endArrow=classic;" edge="1" parent="1" source="ay0zXnUOLZ5nBZyVsYAX-101" target="ay0zXnUOLZ5nBZyVsYAX-106">
          <mxGeometry relative="1" as="geometry" />
        </mxCell>
        <mxCell id="ay0zXnUOLZ5nBZyVsYAX-101" value="x_enc&lt;div&gt;[32,96,7]&lt;/div&gt;" style="rounded=0;whiteSpace=wrap;html=1;fontFamily=Times New Roman, SimSun;strokeWidth=2;fillColor=#fff2cc;strokeColor=#d6b656;" vertex="1" parent="1">
          <mxGeometry x="-1317" y="1330" width="82" height="30" as="geometry" />
        </mxCell>
        <mxCell id="ay0zXnUOLZ5nBZyVsYAX-102" style="edgeStyle=orthogonalEdgeStyle;rounded=0;orthogonalLoop=1;jettySize=auto;html=1;exitX=0.5;exitY=0;exitDx=0;exitDy=0;entryX=0.75;entryY=1;entryDx=0;entryDy=0;strokeColor=default;strokeWidth=3;align=center;verticalAlign=middle;fontFamily=Helvetica;fontSize=11;fontColor=default;labelBackgroundColor=default;endArrow=classic;" edge="1" parent="1" source="ay0zXnUOLZ5nBZyVsYAX-103" target="ay0zXnUOLZ5nBZyVsYAX-106">
          <mxGeometry relative="1" as="geometry" />
        </mxCell>
        <mxCell id="ay0zXnUOLZ5nBZyVsYAX-103" value="x_mark_enc&lt;br&gt;&lt;div&gt;[32,96,4]&lt;/div&gt;" style="rounded=0;whiteSpace=wrap;html=1;fontFamily=Times New Roman, SimSun;strokeWidth=2;strokeColor=#d6b656;align=center;verticalAlign=middle;fontSize=12;fontColor=default;fillColor=#fff2cc;" vertex="1" parent="1">
          <mxGeometry x="-1207" y="1330" width="80" height="30" as="geometry" />
        </mxCell>
        <mxCell id="ay0zXnUOLZ5nBZyVsYAX-104" style="edgeStyle=orthogonalEdgeStyle;rounded=0;orthogonalLoop=1;jettySize=auto;html=1;exitX=0.25;exitY=0;exitDx=0;exitDy=0;entryX=1;entryY=0.5;entryDx=0;entryDy=0;strokeColor=default;strokeWidth=3;align=center;verticalAlign=middle;fontFamily=Helvetica;fontSize=11;fontColor=default;labelBackgroundColor=default;endArrow=classic;" edge="1" parent="1" source="ay0zXnUOLZ5nBZyVsYAX-106" target="ay0zXnUOLZ5nBZyVsYAX-145">
          <mxGeometry relative="1" as="geometry" />
        </mxCell>
        <mxCell id="ay0zXnUOLZ5nBZyVsYAX-105" style="edgeStyle=orthogonalEdgeStyle;rounded=0;orthogonalLoop=1;jettySize=auto;html=1;exitX=0.75;exitY=0;exitDx=0;exitDy=0;entryX=0;entryY=0.5;entryDx=0;entryDy=0;strokeColor=default;strokeWidth=3;align=center;verticalAlign=middle;fontFamily=Helvetica;fontSize=11;fontColor=default;labelBackgroundColor=default;endArrow=classic;" edge="1" parent="1" source="ay0zXnUOLZ5nBZyVsYAX-106" target="ay0zXnUOLZ5nBZyVsYAX-140">
          <mxGeometry relative="1" as="geometry" />
        </mxCell>
        <mxCell id="ay0zXnUOLZ5nBZyVsYAX-106" value="def  __multi_scale_process_inputs()" style="swimlane;fontStyle=0;childLayout=stackLayout;horizontal=1;startSize=40;fillColor=#dae8fc;horizontalStack=0;resizeParent=1;resizeParentMax=0;resizeLast=0;collapsible=1;marginBottom=0;fontFamily=Times New Roman, SimSun;swimlaneLine=1;strokeWidth=2;strokeColor=#6c8ebf;dashed=1;" vertex="1" parent="1">
          <mxGeometry x="-1332" y="1110" width="220" height="118" as="geometry">
            <mxRectangle x="-1332" y="880" width="210" height="40" as="alternateBounds" />
          </mxGeometry>
        </mxCell>
        <mxCell id="ay0zXnUOLZ5nBZyVsYAX-107" value="&lt;span style=&quot;text-align: center; text-wrap-mode: nowrap;&quot;&gt;down_sampling_layers 下采样层=3&lt;/span&gt;" style="text;strokeColor=none;fillColor=none;align=left;verticalAlign=top;spacingLeft=4;spacingRight=4;overflow=hidden;rotatable=0;points=[[0,0.5],[1,0.5]];portConstraint=eastwest;whiteSpace=wrap;html=1;fontFamily=Times New Roman, SimSun;" vertex="1" parent="ay0zXnUOLZ5nBZyVsYAX-106">
          <mxGeometry y="40" width="220" height="26" as="geometry" />
        </mxCell>
        <mxCell id="ay0zXnUOLZ5nBZyVsYAX-108" value="&lt;span style=&quot;text-align: center; text-wrap-mode: nowrap;&quot;&gt;down_sampling_window 下采样倍率 2&lt;/span&gt;" style="text;strokeColor=none;fillColor=none;align=left;verticalAlign=top;spacingLeft=4;spacingRight=4;overflow=hidden;rotatable=0;points=[[0,0.5],[1,0.5]];portConstraint=eastwest;whiteSpace=wrap;html=1;fontFamily=Times New Roman, SimSun;" vertex="1" parent="ay0zXnUOLZ5nBZyVsYAX-106">
          <mxGeometry y="66" width="220" height="26" as="geometry" />
        </mxCell>
        <mxCell id="ay0zXnUOLZ5nBZyVsYAX-109" value="&lt;span style=&quot;text-align: center; text-wrap-mode: nowrap;&quot;&gt;torch.nn.AvgPool1d&lt;/span&gt;" style="text;strokeColor=none;fillColor=none;align=left;verticalAlign=top;spacingLeft=4;spacingRight=4;overflow=hidden;rotatable=0;points=[[0,0.5],[1,0.5]];portConstraint=eastwest;whiteSpace=wrap;html=1;fontFamily=Times New Roman, SimSun;" vertex="1" parent="ay0zXnUOLZ5nBZyVsYAX-106">
          <mxGeometry y="92" width="220" height="26" as="geometry" />
        </mxCell>
        <mxCell id="ay0zXnUOLZ5nBZyVsYAX-110" style="edgeStyle=orthogonalEdgeStyle;rounded=0;orthogonalLoop=1;jettySize=auto;html=1;exitX=0.5;exitY=0;exitDx=0;exitDy=0;entryX=0.5;entryY=1;entryDx=0;entryDy=0;strokeColor=default;strokeWidth=3;align=center;verticalAlign=middle;fontFamily=Helvetica;fontSize=11;fontColor=default;labelBackgroundColor=default;endArrow=classic;" edge="1" parent="1" source="ay0zXnUOLZ5nBZyVsYAX-111" target="ay0zXnUOLZ5nBZyVsYAX-152">
          <mxGeometry relative="1" as="geometry" />
        </mxCell>
        <mxCell id="ay0zXnUOLZ5nBZyVsYAX-111" value="normalize_layers" style="swimlane;fontStyle=0;childLayout=stackLayout;horizontal=1;startSize=20;fillColor=#dae8fc;horizontalStack=0;resizeParent=1;resizeParentMax=0;resizeLast=0;collapsible=1;marginBottom=0;fontFamily=Times New Roman, SimSun;swimlaneLine=1;strokeColor=#6c8ebf;strokeWidth=2;dashed=1;" vertex="1" parent="1">
          <mxGeometry x="-1432" y="865" width="120" height="46" as="geometry">
            <mxRectangle x="-1600" y="610" width="120" height="40" as="alternateBounds" />
          </mxGeometry>
        </mxCell>
        <mxCell id="ay0zXnUOLZ5nBZyVsYAX-112" value="&lt;div style=&quot;&quot;&gt;&lt;span style=&quot;background-color: transparent; text-wrap-mode: nowrap;&quot;&gt;&amp;nbsp;4 x Normalize()&lt;/span&gt;&lt;/div&gt;" style="text;strokeColor=#6c8ebf;fillColor=none;align=center;verticalAlign=top;spacingLeft=4;spacingRight=4;overflow=hidden;rotatable=0;points=[[0,0.5],[1,0.5]];portConstraint=eastwest;whiteSpace=wrap;html=1;fontFamily=Times New Roman, SimSun;strokeWidth=2;dashed=1;" vertex="1" parent="ay0zXnUOLZ5nBZyVsYAX-111">
          <mxGeometry y="20" width="120" height="26" as="geometry" />
        </mxCell>
        <mxCell id="ay0zXnUOLZ5nBZyVsYAX-113" value=".permute(0, 2, 1)" style="swimlane;fontStyle=0;childLayout=stackLayout;horizontal=1;startSize=20;horizontalStack=0;resizeParent=1;resizeParentMax=0;resizeLast=0;collapsible=1;marginBottom=0;fontFamily=Times New Roman, SimSun;swimlaneLine=1;strokeWidth=2;align=center;fillColor=#dae8fc;strokeColor=#6c8ebf;dashed=1;" vertex="1" parent="1">
          <mxGeometry x="-1430" y="557" width="120" height="120" as="geometry">
            <mxRectangle x="-1600" y="470" width="120" height="35" as="alternateBounds" />
          </mxGeometry>
        </mxCell>
        <mxCell id="ay0zXnUOLZ5nBZyVsYAX-114" value="&lt;div style=&quot;&quot;&gt;[0]:Tensor(32,7,96)&lt;/div&gt;" style="text;align=center;verticalAlign=top;spacingLeft=4;spacingRight=4;overflow=hidden;rotatable=0;points=[[0,0.5],[1,0.5]];portConstraint=eastwest;whiteSpace=wrap;html=1;fontFamily=Times New Roman, SimSun;" vertex="1" parent="ay0zXnUOLZ5nBZyVsYAX-113">
          <mxGeometry y="20" width="120" height="26" as="geometry" />
        </mxCell>
        <mxCell id="ay0zXnUOLZ5nBZyVsYAX-115" value="&lt;span style=&quot;&quot;&gt;[1]:Tensor(32,7,48)&lt;/span&gt;" style="text;align=center;verticalAlign=top;spacingLeft=4;spacingRight=4;overflow=hidden;rotatable=0;points=[[0,0.5],[1,0.5]];portConstraint=eastwest;whiteSpace=wrap;html=1;fontFamily=Times New Roman, SimSun;" vertex="1" parent="ay0zXnUOLZ5nBZyVsYAX-113">
          <mxGeometry y="46" width="120" height="26" as="geometry" />
        </mxCell>
        <mxCell id="ay0zXnUOLZ5nBZyVsYAX-116" value="&lt;span style=&quot;&quot;&gt;[2]:Tensor(32,7,24)&lt;/span&gt;" style="text;align=center;verticalAlign=top;spacingLeft=4;spacingRight=4;overflow=hidden;rotatable=0;points=[[0,0.5],[1,0.5]];portConstraint=eastwest;whiteSpace=wrap;html=1;fontFamily=Times New Roman, SimSun;" vertex="1" parent="ay0zXnUOLZ5nBZyVsYAX-113">
          <mxGeometry y="72" width="120" height="26" as="geometry" />
        </mxCell>
        <mxCell id="ay0zXnUOLZ5nBZyVsYAX-117" value="&lt;span style=&quot;&quot;&gt;[3]:Tensor(32,7,12)&lt;/span&gt;" style="text;align=center;verticalAlign=top;spacingLeft=5;spacingRight=5;overflow=hidden;rotatable=0;points=[[0,0.5],[1,0.5]];portConstraint=eastwest;whiteSpace=wrap;html=1;fontFamily=Times New Roman, SimSun;" vertex="1" parent="ay0zXnUOLZ5nBZyVsYAX-113">
          <mxGeometry y="98" width="120" height="22" as="geometry" />
        </mxCell>
        <mxCell id="ay0zXnUOLZ5nBZyVsYAX-118" value=".reshape(B * N, T, 1)" style="swimlane;fontStyle=0;childLayout=stackLayout;horizontal=1;startSize=20;horizontalStack=0;resizeParent=1;resizeParentMax=0;resizeLast=0;collapsible=1;marginBottom=0;fontFamily=Times New Roman, SimSun;swimlaneLine=1;strokeWidth=2;dashed=1;strokeColor=#6c8ebf;fillColor=#dae8fc;" vertex="1" parent="1">
          <mxGeometry x="-1432" y="407" width="120" height="124" as="geometry">
            <mxRectangle x="-1670" y="340" width="121" height="40" as="alternateBounds" />
          </mxGeometry>
        </mxCell>
        <mxCell id="ay0zXnUOLZ5nBZyVsYAX-119" value="&lt;div style=&quot;&quot;&gt;[0]:Tensor(224,96,1)&lt;/div&gt;" style="text;align=center;verticalAlign=top;spacingLeft=4;spacingRight=4;overflow=hidden;rotatable=0;points=[[0,0.5],[1,0.5]];portConstraint=eastwest;whiteSpace=wrap;html=1;fontFamily=Times New Roman, SimSun;" vertex="1" parent="ay0zXnUOLZ5nBZyVsYAX-118">
          <mxGeometry y="20" width="120" height="26" as="geometry" />
        </mxCell>
        <mxCell id="ay0zXnUOLZ5nBZyVsYAX-120" value="&lt;span style=&quot;&quot;&gt;[1]:Tensor(&lt;/span&gt;&lt;span style=&quot;&quot;&gt;224,48,1&lt;/span&gt;&lt;span style=&quot;&quot;&gt;)&lt;/span&gt;" style="text;align=center;verticalAlign=top;spacingLeft=4;spacingRight=4;overflow=hidden;rotatable=0;points=[[0,0.5],[1,0.5]];portConstraint=eastwest;whiteSpace=wrap;html=1;fontFamily=Times New Roman, SimSun;fontSize=12;" vertex="1" parent="ay0zXnUOLZ5nBZyVsYAX-118">
          <mxGeometry y="46" width="120" height="26" as="geometry" />
        </mxCell>
        <mxCell id="ay0zXnUOLZ5nBZyVsYAX-121" value="&lt;span style=&quot;&quot;&gt;[2]:Tensor(&lt;/span&gt;&lt;span style=&quot;&quot;&gt;224,24,1&lt;/span&gt;&lt;span style=&quot;&quot;&gt;)&lt;/span&gt;" style="text;align=center;verticalAlign=top;spacingLeft=4;spacingRight=4;overflow=hidden;rotatable=0;points=[[0,0.5],[1,0.5]];portConstraint=eastwest;whiteSpace=wrap;html=1;fontFamily=Times New Roman, SimSun;" vertex="1" parent="ay0zXnUOLZ5nBZyVsYAX-118">
          <mxGeometry y="72" width="120" height="26" as="geometry" />
        </mxCell>
        <mxCell id="ay0zXnUOLZ5nBZyVsYAX-122" value="&lt;span style=&quot;&quot;&gt;[3]:Tensor(&lt;/span&gt;&lt;span style=&quot;&quot;&gt;224,12,1&lt;/span&gt;&lt;span style=&quot;&quot;&gt;)&lt;/span&gt;" style="text;align=center;verticalAlign=top;spacingLeft=5;spacingRight=5;overflow=hidden;rotatable=0;points=[[0,0.5],[1,0.5]];portConstraint=eastwest;whiteSpace=wrap;html=1;fontFamily=Times New Roman, SimSun;" vertex="1" parent="ay0zXnUOLZ5nBZyVsYAX-118">
          <mxGeometry y="98" width="120" height="26" as="geometry" />
        </mxCell>
        <mxCell id="ay0zXnUOLZ5nBZyVsYAX-123" style="edgeStyle=orthogonalEdgeStyle;rounded=0;orthogonalLoop=1;jettySize=auto;html=1;exitX=0.5;exitY=0;exitDx=0;exitDy=0;entryX=0.5;entryY=1;entryDx=0;entryDy=0;strokeWidth=3;" edge="1" parent="1" source="ay0zXnUOLZ5nBZyVsYAX-124" target="ay0zXnUOLZ5nBZyVsYAX-95">
          <mxGeometry relative="1" as="geometry" />
        </mxCell>
        <mxCell id="ay0zXnUOLZ5nBZyVsYAX-124" value=".repeat(N, 1, 1)" style="swimlane;fontStyle=0;childLayout=stackLayout;horizontal=1;startSize=20;fillColor=#dae8fc;horizontalStack=0;resizeParent=1;resizeParentMax=0;resizeLast=0;collapsible=1;marginBottom=0;fontFamily=Times New Roman, SimSun;swimlaneLine=1;strokeWidth=2;strokeColor=#6c8ebf;align=center;dashed=1;" vertex="1" parent="1">
          <mxGeometry x="-1128" y="780" width="120" height="120" as="geometry">
            <mxRectangle x="-1120" y="620" width="119" height="40" as="alternateBounds" />
          </mxGeometry>
        </mxCell>
        <mxCell id="ay0zXnUOLZ5nBZyVsYAX-125" value="&lt;div style=&quot;&quot;&gt;[0]:Tensor(224,96,4)&lt;/div&gt;" style="text;strokeColor=light-dark(#dae8fc, #6d5100);fillColor=none;align=center;verticalAlign=top;spacingLeft=4;spacingRight=4;overflow=hidden;rotatable=0;points=[[0,0.5],[1,0.5]];portConstraint=eastwest;whiteSpace=wrap;html=1;fontFamily=Times New Roman, SimSun;" vertex="1" parent="ay0zXnUOLZ5nBZyVsYAX-124">
          <mxGeometry y="20" width="120" height="26" as="geometry" />
        </mxCell>
        <mxCell id="ay0zXnUOLZ5nBZyVsYAX-126" value="&lt;span style=&quot;&quot;&gt;[1]:Tensor(&lt;/span&gt;224,48,4&lt;span style=&quot;&quot;&gt;)&lt;/span&gt;" style="text;strokeColor=light-dark(#dae8fc, #6d5100);fillColor=none;align=center;verticalAlign=top;spacingLeft=4;spacingRight=4;overflow=hidden;rotatable=0;points=[[0,0.5],[1,0.5]];portConstraint=eastwest;whiteSpace=wrap;html=1;fontFamily=Times New Roman, SimSun;" vertex="1" parent="ay0zXnUOLZ5nBZyVsYAX-124">
          <mxGeometry y="46" width="120" height="26" as="geometry" />
        </mxCell>
        <mxCell id="ay0zXnUOLZ5nBZyVsYAX-127" value="&lt;span style=&quot;&quot;&gt;[2]:Tensor(224,24,4)&lt;/span&gt;" style="text;strokeColor=light-dark(#dae8fc, #6d5100);fillColor=none;align=center;verticalAlign=top;spacingLeft=4;spacingRight=4;overflow=hidden;rotatable=0;points=[[0,0.5],[1,0.5]];portConstraint=eastwest;whiteSpace=wrap;html=1;fontFamily=Times New Roman, SimSun;" vertex="1" parent="ay0zXnUOLZ5nBZyVsYAX-124">
          <mxGeometry y="72" width="120" height="26" as="geometry" />
        </mxCell>
        <mxCell id="ay0zXnUOLZ5nBZyVsYAX-128" value="&lt;span style=&quot;&quot;&gt;[3]:Tensor(224,12,4)&lt;/span&gt;" style="text;strokeColor=light-dark(#dae8fc, #6d5100);fillColor=none;align=center;verticalAlign=top;spacingLeft=5;spacingRight=5;overflow=hidden;rotatable=0;points=[[0,0.5],[1,0.5]];portConstraint=eastwest;whiteSpace=wrap;html=1;fontFamily=Times New Roman, SimSun;" vertex="1" parent="ay0zXnUOLZ5nBZyVsYAX-124">
          <mxGeometry y="98" width="120" height="22" as="geometry" />
        </mxCell>
        <mxCell id="ay0zXnUOLZ5nBZyVsYAX-129" style="edgeStyle=orthogonalEdgeStyle;rounded=0;orthogonalLoop=1;jettySize=auto;html=1;exitX=0.5;exitY=0;exitDx=0;exitDy=0;entryX=0.5;entryY=1;entryDx=0;entryDy=0;strokeColor=default;strokeWidth=3;align=center;verticalAlign=middle;fontFamily=Helvetica;fontSize=11;fontColor=default;labelBackgroundColor=default;endArrow=classic;" edge="1" parent="1" source="ay0zXnUOLZ5nBZyVsYAX-130" target="ay0zXnUOLZ5nBZyVsYAX-147">
          <mxGeometry relative="1" as="geometry" />
        </mxCell>
        <mxCell id="ay0zXnUOLZ5nBZyVsYAX-130" value="x_list (List)" style="swimlane;fontStyle=0;childLayout=stackLayout;horizontal=1;startSize=20;fillColor=#fff2cc;horizontalStack=0;resizeParent=1;resizeParentMax=0;resizeLast=0;collapsible=1;marginBottom=0;fontFamily=Times New Roman, SimSun;swimlaneLine=1;strokeWidth=2;strokeColor=#d6b656;" vertex="1" parent="1">
          <mxGeometry x="-1427.5" y="246" width="120" height="124" as="geometry">
            <mxRectangle x="200" y="440" width="120" height="40" as="alternateBounds" />
          </mxGeometry>
        </mxCell>
        <mxCell id="ay0zXnUOLZ5nBZyVsYAX-131" value="&lt;div style=&quot;&quot;&gt;[0]:Tensor(224,96,1)&lt;/div&gt;" style="text;strokeColor=#d6b656;fillColor=#fff2cc;align=center;verticalAlign=top;spacingLeft=4;spacingRight=4;overflow=hidden;rotatable=0;points=[[0,0.5],[1,0.5]];portConstraint=eastwest;whiteSpace=wrap;html=1;fontFamily=Times New Roman, SimSun;" vertex="1" parent="ay0zXnUOLZ5nBZyVsYAX-130">
          <mxGeometry y="20" width="120" height="26" as="geometry" />
        </mxCell>
        <mxCell id="ay0zXnUOLZ5nBZyVsYAX-132" value="&lt;span style=&quot;&quot;&gt;[1]:Tensor(&lt;/span&gt;&lt;span style=&quot;&quot;&gt;224,48,1&lt;/span&gt;&lt;span style=&quot;&quot;&gt;)&lt;/span&gt;" style="text;strokeColor=#d6b656;fillColor=#fff2cc;align=center;verticalAlign=top;spacingLeft=4;spacingRight=4;overflow=hidden;rotatable=0;points=[[0,0.5],[1,0.5]];portConstraint=eastwest;whiteSpace=wrap;html=1;fontFamily=Times New Roman, SimSun;fontSize=12;fontColor=default;" vertex="1" parent="ay0zXnUOLZ5nBZyVsYAX-130">
          <mxGeometry y="46" width="120" height="26" as="geometry" />
        </mxCell>
        <mxCell id="ay0zXnUOLZ5nBZyVsYAX-133" value="&lt;span style=&quot;&quot;&gt;[2]:Tensor(&lt;/span&gt;&lt;span style=&quot;&quot;&gt;224,24,1&lt;/span&gt;&lt;span style=&quot;&quot;&gt;)&lt;/span&gt;" style="text;strokeColor=#d6b656;fillColor=#fff2cc;align=center;verticalAlign=top;spacingLeft=4;spacingRight=4;overflow=hidden;rotatable=0;points=[[0,0.5],[1,0.5]];portConstraint=eastwest;whiteSpace=wrap;html=1;fontFamily=Times New Roman, SimSun;" vertex="1" parent="ay0zXnUOLZ5nBZyVsYAX-130">
          <mxGeometry y="72" width="120" height="26" as="geometry" />
        </mxCell>
        <mxCell id="ay0zXnUOLZ5nBZyVsYAX-134" value="&lt;span style=&quot;&quot;&gt;[3]:Tensor(&lt;/span&gt;&lt;span style=&quot;&quot;&gt;224,12,1&lt;/span&gt;&lt;span style=&quot;&quot;&gt;)&lt;/span&gt;" style="text;strokeColor=#d6b656;fillColor=#fff2cc;align=center;verticalAlign=top;spacingLeft=5;spacingRight=5;overflow=hidden;rotatable=0;points=[[0,0.5],[1,0.5]];portConstraint=eastwest;whiteSpace=wrap;html=1;fontFamily=Times New Roman, SimSun;" vertex="1" parent="ay0zXnUOLZ5nBZyVsYAX-130">
          <mxGeometry y="98" width="120" height="26" as="geometry" />
        </mxCell>
        <mxCell id="ay0zXnUOLZ5nBZyVsYAX-135" style="edgeStyle=orthogonalEdgeStyle;rounded=0;orthogonalLoop=1;jettySize=auto;html=1;exitX=0.5;exitY=0;exitDx=0;exitDy=0;entryX=0.5;entryY=1;entryDx=0;entryDy=0;strokeColor=default;strokeWidth=3;align=center;verticalAlign=middle;fontFamily=Helvetica;fontSize=11;fontColor=default;labelBackgroundColor=default;endArrow=classic;" edge="1" parent="1" source="ay0zXnUOLZ5nBZyVsYAX-136" target="ay0zXnUOLZ5nBZyVsYAX-124">
          <mxGeometry relative="1" as="geometry" />
        </mxCell>
        <mxCell id="ay0zXnUOLZ5nBZyVsYAX-136" value="x_mark_list (List)" style="swimlane;fontStyle=0;childLayout=stackLayout;horizontal=1;startSize=20;fillColor=#fff2cc;horizontalStack=0;resizeParent=1;resizeParentMax=0;resizeLast=0;collapsible=1;marginBottom=0;fontFamily=Times New Roman, SimSun;swimlaneLine=1;strokeWidth=2;strokeColor=#d6b656;align=center;" vertex="1" parent="1">
          <mxGeometry x="-1128" y="960" width="120" height="120" as="geometry">
            <mxRectangle x="-1120" y="710" width="120" height="40" as="alternateBounds" />
          </mxGeometry>
        </mxCell>
        <mxCell id="ay0zXnUOLZ5nBZyVsYAX-137" value="&lt;div style=&quot;&quot;&gt;[0]:Tensor(32,96,4)&lt;/div&gt;" style="text;strokeColor=#d6b656;fillColor=#fff2cc;align=center;verticalAlign=top;spacingLeft=4;spacingRight=4;overflow=hidden;rotatable=0;points=[[0,0.5],[1,0.5]];portConstraint=eastwest;whiteSpace=wrap;html=1;fontFamily=Times New Roman, SimSun;" vertex="1" parent="ay0zXnUOLZ5nBZyVsYAX-136">
          <mxGeometry y="20" width="120" height="26" as="geometry" />
        </mxCell>
        <mxCell id="ay0zXnUOLZ5nBZyVsYAX-138" value="&lt;span style=&quot;&quot;&gt;[1]:Tensor(32&lt;/span&gt;,48,4&lt;span style=&quot;&quot;&gt;)&lt;/span&gt;" style="text;strokeColor=#d6b656;fillColor=#fff2cc;align=center;verticalAlign=top;spacingLeft=4;spacingRight=4;overflow=hidden;rotatable=0;points=[[0,0.5],[1,0.5]];portConstraint=eastwest;whiteSpace=wrap;html=1;fontFamily=Times New Roman, SimSun;" vertex="1" parent="ay0zXnUOLZ5nBZyVsYAX-136">
          <mxGeometry y="46" width="120" height="26" as="geometry" />
        </mxCell>
        <mxCell id="ay0zXnUOLZ5nBZyVsYAX-139" value="&lt;span style=&quot;&quot;&gt;[2]:Tensor(32,24,4)&lt;/span&gt;" style="text;strokeColor=#d6b656;fillColor=#fff2cc;align=center;verticalAlign=top;spacingLeft=4;spacingRight=4;overflow=hidden;rotatable=0;points=[[0,0.5],[1,0.5]];portConstraint=eastwest;whiteSpace=wrap;html=1;fontFamily=Times New Roman, SimSun;" vertex="1" parent="ay0zXnUOLZ5nBZyVsYAX-136">
          <mxGeometry y="72" width="120" height="26" as="geometry" />
        </mxCell>
        <mxCell id="ay0zXnUOLZ5nBZyVsYAX-140" value="&lt;span style=&quot;&quot;&gt;[3]:Tensor(32,12,4)&lt;/span&gt;" style="text;strokeColor=#d6b656;fillColor=#fff2cc;align=center;verticalAlign=top;spacingLeft=5;spacingRight=5;overflow=hidden;rotatable=0;points=[[0,0.5],[1,0.5]];portConstraint=eastwest;whiteSpace=wrap;html=1;fontFamily=Times New Roman, SimSun;" vertex="1" parent="ay0zXnUOLZ5nBZyVsYAX-136">
          <mxGeometry y="98" width="120" height="22" as="geometry" />
        </mxCell>
        <mxCell id="ay0zXnUOLZ5nBZyVsYAX-141" value="x_enc (List)" style="swimlane;fontStyle=0;childLayout=stackLayout;horizontal=1;startSize=20;fillColor=#fff2cc;horizontalStack=0;resizeParent=1;resizeParentMax=0;resizeLast=0;collapsible=1;marginBottom=0;fontFamily=Times New Roman, SimSun;swimlaneLine=1;strokeWidth=2;strokeColor=#d6b656;align=center;" vertex="1" parent="1">
          <mxGeometry x="-1435" y="960" width="120" height="120" as="geometry">
            <mxRectangle x="-1440" y="710" width="120" height="40" as="alternateBounds" />
          </mxGeometry>
        </mxCell>
        <mxCell id="ay0zXnUOLZ5nBZyVsYAX-142" value="&lt;div style=&quot;&quot;&gt;[0]:Tensor(32,96,7)&lt;/div&gt;" style="text;strokeColor=#d6b656;fillColor=#fff2cc;align=center;verticalAlign=top;spacingLeft=4;spacingRight=4;overflow=hidden;rotatable=0;points=[[0,0.5],[1,0.5]];portConstraint=eastwest;whiteSpace=wrap;html=1;fontFamily=Times New Roman, SimSun;" vertex="1" parent="ay0zXnUOLZ5nBZyVsYAX-141">
          <mxGeometry y="20" width="120" height="26" as="geometry" />
        </mxCell>
        <mxCell id="ay0zXnUOLZ5nBZyVsYAX-143" value="&lt;span style=&quot;&quot;&gt;[1]:Tensor(32&lt;/span&gt;,48,7&lt;span style=&quot;&quot;&gt;)&lt;/span&gt;" style="text;strokeColor=#d6b656;fillColor=#fff2cc;align=center;verticalAlign=top;spacingLeft=4;spacingRight=4;overflow=hidden;rotatable=0;points=[[0,0.5],[1,0.5]];portConstraint=eastwest;whiteSpace=wrap;html=1;fontFamily=Times New Roman, SimSun;" vertex="1" parent="ay0zXnUOLZ5nBZyVsYAX-141">
          <mxGeometry y="46" width="120" height="26" as="geometry" />
        </mxCell>
        <mxCell id="ay0zXnUOLZ5nBZyVsYAX-144" value="&lt;span style=&quot;&quot;&gt;[2]:Tensor(32,24,7)&lt;/span&gt;" style="text;strokeColor=#d6b656;fillColor=#fff2cc;align=center;verticalAlign=top;spacingLeft=4;spacingRight=4;overflow=hidden;rotatable=0;points=[[0,0.5],[1,0.5]];portConstraint=eastwest;whiteSpace=wrap;html=1;fontFamily=Times New Roman, SimSun;" vertex="1" parent="ay0zXnUOLZ5nBZyVsYAX-141">
          <mxGeometry y="72" width="120" height="26" as="geometry" />
        </mxCell>
        <mxCell id="ay0zXnUOLZ5nBZyVsYAX-145" value="&lt;span style=&quot;&quot;&gt;[3]:Tensor(32,12,7)&lt;/span&gt;" style="text;strokeColor=#d6b656;fillColor=#fff2cc;align=center;verticalAlign=top;spacingLeft=5;spacingRight=5;overflow=hidden;rotatable=0;points=[[0,0.5],[1,0.5]];portConstraint=eastwest;whiteSpace=wrap;html=1;fontFamily=Times New Roman, SimSun;" vertex="1" parent="ay0zXnUOLZ5nBZyVsYAX-141">
          <mxGeometry y="98" width="120" height="22" as="geometry" />
        </mxCell>
        <mxCell id="ay0zXnUOLZ5nBZyVsYAX-146" style="edgeStyle=orthogonalEdgeStyle;rounded=0;orthogonalLoop=1;jettySize=auto;html=1;exitX=0.5;exitY=0;exitDx=0;exitDy=0;strokeColor=default;strokeWidth=3;align=center;verticalAlign=middle;fontFamily=Helvetica;fontSize=11;fontColor=default;labelBackgroundColor=default;endArrow=classic;" edge="1" parent="1" source="ay0zXnUOLZ5nBZyVsYAX-147" target="ay0zXnUOLZ5nBZyVsYAX-94">
          <mxGeometry relative="1" as="geometry" />
        </mxCell>
        <mxCell id="ay0zXnUOLZ5nBZyVsYAX-147" value="pre_enc" style="swimlane;fontStyle=0;childLayout=stackLayout;horizontal=1;startSize=20;fillColor=#dae8fc;horizontalStack=0;resizeParent=1;resizeParentMax=0;resizeLast=0;collapsible=1;marginBottom=0;fontFamily=Times New Roman, SimSun;swimlaneLine=1;strokeWidth=2;strokeColor=#6c8ebf;dashed=1;" vertex="1" parent="1">
          <mxGeometry x="-1430" y="110" width="130" height="98" as="geometry">
            <mxRectangle x="-1609" y="70" width="119" height="40" as="alternateBounds" />
          </mxGeometry>
        </mxCell>
        <mxCell id="ay0zXnUOLZ5nBZyVsYAX-148" value="&lt;div style=&quot;&quot;&gt;channel_independence&lt;/div&gt;" style="text;align=center;verticalAlign=top;spacingLeft=4;spacingRight=4;overflow=hidden;rotatable=0;points=[[0,0.5],[1,0.5]];portConstraint=eastwest;whiteSpace=wrap;html=1;fontFamily=Times New Roman, SimSun;" vertex="1" parent="ay0zXnUOLZ5nBZyVsYAX-147">
          <mxGeometry y="20" width="130" height="26" as="geometry" />
        </mxCell>
        <mxCell id="ay0zXnUOLZ5nBZyVsYAX-149" value="通道独立 返回原值" style="text;align=center;verticalAlign=top;spacingLeft=4;spacingRight=4;overflow=hidden;rotatable=0;points=[[0,0.5],[1,0.5]];portConstraint=eastwest;whiteSpace=wrap;html=1;fontFamily=Times New Roman, SimSun;fontSize=12;" vertex="1" parent="ay0zXnUOLZ5nBZyVsYAX-147">
          <mxGeometry y="46" width="130" height="26" as="geometry" />
        </mxCell>
        <mxCell id="ay0zXnUOLZ5nBZyVsYAX-150" value="x_list" style="text;align=center;verticalAlign=top;spacingLeft=4;spacingRight=4;overflow=hidden;rotatable=0;points=[[0,0.5],[1,0.5]];portConstraint=eastwest;whiteSpace=wrap;html=1;fontFamily=Times New Roman, SimSun;" vertex="1" parent="ay0zXnUOLZ5nBZyVsYAX-147">
          <mxGeometry y="72" width="130" height="26" as="geometry" />
        </mxCell>
        <mxCell id="ay0zXnUOLZ5nBZyVsYAX-151" style="edgeStyle=orthogonalEdgeStyle;rounded=0;orthogonalLoop=1;jettySize=auto;html=1;exitX=0.5;exitY=0;exitDx=0;exitDy=0;entryX=0.5;entryY=1;entryDx=0;entryDy=0;strokeColor=default;strokeWidth=3;align=center;verticalAlign=middle;fontFamily=Helvetica;fontSize=11;fontColor=default;labelBackgroundColor=default;endArrow=classic;" edge="1" parent="1" source="ay0zXnUOLZ5nBZyVsYAX-152" target="ay0zXnUOLZ5nBZyVsYAX-113">
          <mxGeometry relative="1" as="geometry" />
        </mxCell>
        <mxCell id="ay0zXnUOLZ5nBZyVsYAX-152" value="x_enc (List)" style="swimlane;fontStyle=0;childLayout=stackLayout;horizontal=1;startSize=20;fillColor=#fff2cc;horizontalStack=0;resizeParent=1;resizeParentMax=0;resizeLast=0;collapsible=1;marginBottom=0;fontFamily=Times New Roman, SimSun;swimlaneLine=1;strokeWidth=2;strokeColor=#d6b656;align=center;" vertex="1" parent="1">
          <mxGeometry x="-1432" y="708" width="120" height="120" as="geometry">
            <mxRectangle x="-1440" y="550" width="120" height="40" as="alternateBounds" />
          </mxGeometry>
        </mxCell>
        <mxCell id="ay0zXnUOLZ5nBZyVsYAX-153" value="&lt;div style=&quot;&quot;&gt;[0]:Tensor(32,96,7)&lt;/div&gt;" style="text;strokeColor=#d6b656;fillColor=#fff2cc;align=center;verticalAlign=top;spacingLeft=4;spacingRight=4;overflow=hidden;rotatable=0;points=[[0,0.5],[1,0.5]];portConstraint=eastwest;whiteSpace=wrap;html=1;fontFamily=Times New Roman, SimSun;" vertex="1" parent="ay0zXnUOLZ5nBZyVsYAX-152">
          <mxGeometry y="20" width="120" height="26" as="geometry" />
        </mxCell>
        <mxCell id="ay0zXnUOLZ5nBZyVsYAX-154" value="&lt;span style=&quot;&quot;&gt;[1]:Tensor(32&lt;/span&gt;,48,7&lt;span style=&quot;&quot;&gt;)&lt;/span&gt;" style="text;strokeColor=#d6b656;fillColor=#fff2cc;align=center;verticalAlign=top;spacingLeft=4;spacingRight=4;overflow=hidden;rotatable=0;points=[[0,0.5],[1,0.5]];portConstraint=eastwest;whiteSpace=wrap;html=1;fontFamily=Times New Roman, SimSun;" vertex="1" parent="ay0zXnUOLZ5nBZyVsYAX-152">
          <mxGeometry y="46" width="120" height="26" as="geometry" />
        </mxCell>
        <mxCell id="ay0zXnUOLZ5nBZyVsYAX-155" value="&lt;span style=&quot;&quot;&gt;[2]:Tensor(32,24,7)&lt;/span&gt;" style="text;strokeColor=#d6b656;fillColor=#fff2cc;align=center;verticalAlign=top;spacingLeft=4;spacingRight=4;overflow=hidden;rotatable=0;points=[[0,0.5],[1,0.5]];portConstraint=eastwest;whiteSpace=wrap;html=1;fontFamily=Times New Roman, SimSun;" vertex="1" parent="ay0zXnUOLZ5nBZyVsYAX-152">
          <mxGeometry y="72" width="120" height="26" as="geometry" />
        </mxCell>
        <mxCell id="ay0zXnUOLZ5nBZyVsYAX-156" value="&lt;span style=&quot;&quot;&gt;[3]:Tensor(32,12,7)&lt;/span&gt;" style="text;strokeColor=#d6b656;fillColor=#fff2cc;align=center;verticalAlign=top;spacingLeft=5;spacingRight=5;overflow=hidden;rotatable=0;points=[[0,0.5],[1,0.5]];portConstraint=eastwest;whiteSpace=wrap;html=1;fontFamily=Times New Roman, SimSun;" vertex="1" parent="ay0zXnUOLZ5nBZyVsYAX-152">
          <mxGeometry y="98" width="120" height="22" as="geometry" />
        </mxCell>
        <mxCell id="ay0zXnUOLZ5nBZyVsYAX-157" style="edgeStyle=orthogonalEdgeStyle;rounded=0;orthogonalLoop=1;jettySize=auto;html=1;exitX=0.5;exitY=0;exitDx=0;exitDy=0;entryX=0.513;entryY=0.885;entryDx=0;entryDy=0;entryPerimeter=0;strokeColor=default;strokeWidth=3;align=center;verticalAlign=middle;fontFamily=Helvetica;fontSize=11;fontColor=default;labelBackgroundColor=default;endArrow=classic;" edge="1" parent="1" source="ay0zXnUOLZ5nBZyVsYAX-113" target="ay0zXnUOLZ5nBZyVsYAX-122">
          <mxGeometry relative="1" as="geometry" />
        </mxCell>
        <mxCell id="ay0zXnUOLZ5nBZyVsYAX-158" style="edgeStyle=orthogonalEdgeStyle;rounded=0;orthogonalLoop=1;jettySize=auto;html=1;exitX=0.5;exitY=0;exitDx=0;exitDy=0;entryX=0.486;entryY=0.98;entryDx=0;entryDy=0;entryPerimeter=0;strokeColor=default;strokeWidth=3;align=center;verticalAlign=middle;fontFamily=Helvetica;fontSize=11;fontColor=default;labelBackgroundColor=default;endArrow=classic;" edge="1" parent="1" source="ay0zXnUOLZ5nBZyVsYAX-118" target="ay0zXnUOLZ5nBZyVsYAX-134">
          <mxGeometry relative="1" as="geometry" />
        </mxCell>
        <mxCell id="ay0zXnUOLZ5nBZyVsYAX-159" style="edgeStyle=orthogonalEdgeStyle;rounded=0;orthogonalLoop=1;jettySize=auto;html=1;exitX=0.5;exitY=0;exitDx=0;exitDy=0;entryX=0.483;entryY=0.966;entryDx=0;entryDy=0;entryPerimeter=0;strokeColor=default;strokeWidth=3;align=center;verticalAlign=middle;fontFamily=Helvetica;fontSize=11;fontColor=default;labelBackgroundColor=default;endArrow=classic;" edge="1" parent="1" source="ay0zXnUOLZ5nBZyVsYAX-81" target="ay0zXnUOLZ5nBZyVsYAX-76">
          <mxGeometry relative="1" as="geometry" />
        </mxCell>
        <mxCell id="ay0zXnUOLZ5nBZyVsYAX-160" style="edgeStyle=orthogonalEdgeStyle;rounded=0;orthogonalLoop=1;jettySize=auto;html=1;exitX=0.5;exitY=0;exitDx=0;exitDy=0;entryX=0.497;entryY=0.994;entryDx=0;entryDy=0;entryPerimeter=0;strokeColor=default;strokeWidth=3;align=center;verticalAlign=middle;fontFamily=Helvetica;fontSize=11;fontColor=default;labelBackgroundColor=default;endArrow=classic;" edge="1" parent="1" source="ay0zXnUOLZ5nBZyVsYAX-73" target="ay0zXnUOLZ5nBZyVsYAX-80">
          <mxGeometry relative="1" as="geometry" />
        </mxCell>
        <mxCell id="ay0zXnUOLZ5nBZyVsYAX-161" style="edgeStyle=orthogonalEdgeStyle;rounded=0;orthogonalLoop=1;jettySize=auto;html=1;exitX=1;exitY=0.5;exitDx=0;exitDy=0;entryX=0.544;entryY=1.004;entryDx=0;entryDy=0;entryPerimeter=0;strokeColor=default;strokeWidth=3;align=center;verticalAlign=middle;fontFamily=Helvetica;fontSize=11;fontColor=default;labelBackgroundColor=default;endArrow=classic;" edge="1" parent="1" source="ay0zXnUOLZ5nBZyVsYAX-68" target="ay0zXnUOLZ5nBZyVsYAX-62">
          <mxGeometry relative="1" as="geometry" />
        </mxCell>
        <mxCell id="ay0zXnUOLZ5nBZyVsYAX-162" style="edgeStyle=orthogonalEdgeStyle;rounded=0;orthogonalLoop=1;jettySize=auto;html=1;exitX=0;exitY=0.5;exitDx=0;exitDy=0;entryX=0.469;entryY=1.002;entryDx=0;entryDy=0;entryPerimeter=0;strokeColor=default;strokeWidth=3;align=center;verticalAlign=middle;fontFamily=Helvetica;fontSize=11;fontColor=default;labelBackgroundColor=default;endArrow=classic;" edge="1" parent="1" source="ay0zXnUOLZ5nBZyVsYAX-65" target="ay0zXnUOLZ5nBZyVsYAX-59">
          <mxGeometry relative="1" as="geometry" />
        </mxCell>
        <mxCell id="ay0zXnUOLZ5nBZyVsYAX-163" style="edgeStyle=orthogonalEdgeStyle;rounded=0;orthogonalLoop=1;jettySize=auto;html=1;exitX=0.5;exitY=0;exitDx=0;exitDy=0;entryX=1;entryY=0.5;entryDx=0;entryDy=0;entryPerimeter=0;strokeColor=default;strokeWidth=3;align=center;verticalAlign=middle;fontFamily=Helvetica;fontSize=11;fontColor=default;labelBackgroundColor=default;endArrow=classic;" edge="1" parent="1" source="ay0zXnUOLZ5nBZyVsYAX-52" target="ay0zXnUOLZ5nBZyVsYAX-46">
          <mxGeometry relative="1" as="geometry" />
        </mxCell>
        <mxCell id="ay0zXnUOLZ5nBZyVsYAX-164" style="edgeStyle=orthogonalEdgeStyle;rounded=0;orthogonalLoop=1;jettySize=auto;html=1;exitX=0.5;exitY=0;exitDx=0;exitDy=0;entryX=0;entryY=0.5;entryDx=0;entryDy=0;entryPerimeter=0;strokeColor=default;strokeWidth=3;align=center;verticalAlign=middle;fontFamily=Helvetica;fontSize=11;fontColor=default;labelBackgroundColor=default;endArrow=classic;" edge="1" parent="1" source="ay0zXnUOLZ5nBZyVsYAX-47" target="ay0zXnUOLZ5nBZyVsYAX-46">
          <mxGeometry relative="1" as="geometry" />
        </mxCell>
        <mxCell id="ay0zXnUOLZ5nBZyVsYAX-165" style="edgeStyle=orthogonalEdgeStyle;rounded=0;orthogonalLoop=1;jettySize=auto;html=1;exitX=0.5;exitY=0;exitDx=0;exitDy=0;exitPerimeter=0;entryX=0.53;entryY=1.009;entryDx=0;entryDy=0;entryPerimeter=0;strokeColor=default;strokeWidth=3;align=center;verticalAlign=middle;fontFamily=Helvetica;fontSize=11;fontColor=default;labelBackgroundColor=default;endArrow=classic;" edge="1" parent="1" source="ay0zXnUOLZ5nBZyVsYAX-46" target="ay0zXnUOLZ5nBZyVsYAX-44">
          <mxGeometry relative="1" as="geometry" />
        </mxCell>
        <mxCell id="ay0zXnUOLZ5nBZyVsYAX-166" style="edgeStyle=orthogonalEdgeStyle;rounded=0;orthogonalLoop=1;jettySize=auto;html=1;exitX=0.5;exitY=0;exitDx=0;exitDy=0;entryX=0.5;entryY=1;entryDx=0;entryDy=0;entryPerimeter=0;strokeColor=default;strokeWidth=3;align=center;verticalAlign=middle;fontFamily=Helvetica;fontSize=11;fontColor=default;labelBackgroundColor=default;endArrow=classic;" edge="1" parent="1" source="ay0zXnUOLZ5nBZyVsYAX-43" target="ay0zXnUOLZ5nBZyVsYAX-45">
          <mxGeometry relative="1" as="geometry" />
        </mxCell>
        <mxCell id="ay0zXnUOLZ5nBZyVsYAX-167" style="edgeStyle=orthogonalEdgeStyle;rounded=0;orthogonalLoop=1;jettySize=auto;html=1;exitX=0.5;exitY=0;exitDx=0;exitDy=0;exitPerimeter=0;entryX=0.495;entryY=0.963;entryDx=0;entryDy=0;entryPerimeter=0;strokeColor=default;strokeWidth=3;align=center;verticalAlign=middle;fontFamily=Helvetica;fontSize=11;fontColor=default;labelBackgroundColor=default;endArrow=classic;" edge="1" parent="1" source="ay0zXnUOLZ5nBZyVsYAX-45" target="ay0zXnUOLZ5nBZyVsYAX-42">
          <mxGeometry relative="1" as="geometry" />
        </mxCell>
        <mxCell id="ay0zXnUOLZ5nBZyVsYAX-168" style="edgeStyle=orthogonalEdgeStyle;rounded=0;orthogonalLoop=1;jettySize=auto;html=1;exitX=0.5;exitY=0;exitDx=0;exitDy=0;entryX=0.459;entryY=0.991;entryDx=0;entryDy=0;entryPerimeter=0;strokeColor=default;strokeWidth=3;align=center;verticalAlign=middle;fontFamily=Helvetica;fontSize=11;fontColor=default;labelBackgroundColor=default;endArrow=classic;" edge="1" parent="1" source="ay0zXnUOLZ5nBZyVsYAX-38" target="ay0zXnUOLZ5nBZyVsYAX-37">
          <mxGeometry relative="1" as="geometry" />
        </mxCell>
        <mxCell id="ay0zXnUOLZ5nBZyVsYAX-169" style="edgeStyle=orthogonalEdgeStyle;rounded=0;orthogonalLoop=1;jettySize=auto;html=1;exitX=0;exitY=0.5;exitDx=0;exitDy=0;entryX=0;entryY=0.5;entryDx=0;entryDy=0;entryPerimeter=0;strokeColor=default;strokeWidth=3;align=center;verticalAlign=middle;fontFamily=Helvetica;fontSize=11;fontColor=default;labelBackgroundColor=default;endArrow=classic;" edge="1" parent="1" source="ay0zXnUOLZ5nBZyVsYAX-132" target="ay0zXnUOLZ5nBZyVsYAX-45">
          <mxGeometry relative="1" as="geometry">
            <Array as="points">
              <mxPoint x="-1990" y="305" />
              <mxPoint x="-1990" y="-1600" />
            </Array>
          </mxGeometry>
        </mxCell>
        <mxCell id="ay0zXnUOLZ5nBZyVsYAX-170" style="edgeStyle=orthogonalEdgeStyle;rounded=0;orthogonalLoop=1;jettySize=auto;html=1;exitX=0.5;exitY=0;exitDx=0;exitDy=0;entryX=0.224;entryY=1.012;entryDx=0;entryDy=0;entryPerimeter=0;strokeColor=default;strokeWidth=3;align=center;verticalAlign=middle;fontFamily=Helvetica;fontSize=11;fontColor=default;labelBackgroundColor=default;endArrow=classic;" edge="1" parent="1" source="ay0zXnUOLZ5nBZyVsYAX-90" target="ay0zXnUOLZ5nBZyVsYAX-89">
          <mxGeometry relative="1" as="geometry" />
        </mxCell>
        <mxCell id="ay0zXnUOLZ5nBZyVsYAX-171" style="edgeStyle=orthogonalEdgeStyle;rounded=0;orthogonalLoop=1;jettySize=auto;html=1;exitX=0.5;exitY=0;exitDx=0;exitDy=0;entryX=0.8;entryY=1.012;entryDx=0;entryDy=0;entryPerimeter=0;strokeColor=default;strokeWidth=3;align=center;verticalAlign=middle;fontFamily=Helvetica;fontSize=11;fontColor=default;labelBackgroundColor=default;endArrow=classic;" edge="1" parent="1" source="ay0zXnUOLZ5nBZyVsYAX-95" target="ay0zXnUOLZ5nBZyVsYAX-89">
          <mxGeometry relative="1" as="geometry" />
        </mxCell>
        <mxCell id="ay0zXnUOLZ5nBZyVsYAX-172" style="edgeStyle=orthogonalEdgeStyle;rounded=0;orthogonalLoop=1;jettySize=auto;html=1;exitX=0.5;exitY=0;exitDx=0;exitDy=0;entryX=0.481;entryY=1.026;entryDx=0;entryDy=0;entryPerimeter=0;strokeColor=default;strokeWidth=3;align=center;verticalAlign=middle;fontFamily=Helvetica;fontSize=11;fontColor=default;labelBackgroundColor=default;endArrow=classic;" edge="1" parent="1" source="ay0zXnUOLZ5nBZyVsYAX-141" target="ay0zXnUOLZ5nBZyVsYAX-112">
          <mxGeometry relative="1" as="geometry" />
        </mxCell>
      </root>
    </mxGraphModel>
  </diagram>
</mxfile>
